<svg xmlns="http://www.w3.org/2000/svg" xmlns:xlink="http://www.w3.org/1999/xlink" contentStyleType="text/css" height="1562px" preserveAspectRatio="none" style="width:3845px;height:1562px;background:#FFFFFF;" version="1.1" viewBox="0 0 3845 1562" width="3845px" zoomAndPan="magnify"><title>University Course Management System (UCMS) - [High Level] Class Diagram</title><defs/><g><text fill="#000000" font-family="sans-serif" font-size="14" font-weight="bold" lengthAdjust="spacing" textLength="511.1299" x="1659.9351" y="24.5332">University Course Management System (UCMS) - [High Level] Class Diagram</text><!--cluster University Course Management System (UCMS)--><g id="cluster_University Course Management System (UCMS)"><rect fill="none" height="1511" rx="2.5" ry="2.5" style="stroke:#181818;stroke-width:1.0;" width="3776" x="63" y="45.6094"/><text fill="#000000" font-family="sans-serif" font-size="14" font-weight="bold" lengthAdjust="spacing" textLength="317.4131" x="1792.2935" y="62.1426">University Course Management System (UCMS)</text></g><!--cluster Core Domain Entities--><g id="cluster_Core Domain Entities"><rect fill="none" height="506" rx="2.5" ry="2.5" style="stroke:#181818;stroke-width:1.0;" width="835" x="1196" y="1026.6094"/><text fill="#000000" font-family="sans-serif" font-size="14" font-weight="bold" lengthAdjust="spacing" textLength="141.5791" x="1542.7104" y="1043.1426">Core Domain Entities</text></g><!--cluster Repositories--><g id="cluster_Repositories"><rect fill="none" height="170" rx="2.5" ry="2.5" style="stroke:#181818;stroke-width:1.0;" width="577" x="411" y="708.6094"/><text fill="#000000" font-family="sans-serif" font-size="14" font-weight="bold" lengthAdjust="spacing" textLength="84.7998" x="657.1001" y="725.1426">Repositories</text></g><!--cluster Authentication Service--><g id="cluster_Authentication Service"><rect fill="none" height="754" rx="2.5" ry="2.5" style="stroke:#181818;stroke-width:1.0;" width="501" x="3314" y="98.6094"/><text fill="#000000" font-family="sans-serif" font-size="14" font-weight="bold" lengthAdjust="spacing" textLength="151.7031" x="3488.6484" y="115.1426">Authentication Service</text></g><!--cluster Course Enrollment Service--><g id="cluster_Course Enrollment Service"><rect fill="none" height="462" rx="2.5" ry="2.5" style="stroke:#181818;stroke-width:1.0;" width="1072" x="1337" y="399.1094"/><text fill="#000000" font-family="sans-serif" font-size="14" font-weight="bold" lengthAdjust="spacing" textLength="178.9512" x="1783.5244" y="415.6426">Course Enrollment Service</text></g><!--cluster Notification Service--><g id="cluster_Notification Service"><rect fill="none" height="135" rx="2.5" ry="2.5" style="stroke:#181818;stroke-width:1.0;" width="857" x="2433" y="726.1094"/><text fill="#000000" font-family="sans-serif" font-size="14" font-weight="bold" lengthAdjust="spacing" textLength="130.7031" x="2796.1484" y="742.6426">Notification Service</text></g><!--cluster Reporting and Analytics Service--><g id="cluster_Reporting and Analytics Service"><rect fill="none" height="135" rx="2.5" ry="2.5" style="stroke:#181818;stroke-width:1.0;" width="574" x="866" y="98.6094"/><text fill="#000000" font-family="sans-serif" font-size="14" font-weight="bold" lengthAdjust="spacing" textLength="214.7305" x="1045.6348" y="115.1426">Reporting and Analytics Service</text></g><!--cluster Data Backup and ETL--><g id="cluster_Data Backup and ETL"><rect fill="none" height="153" rx="2.5" ry="2.5" style="stroke:#181818;stroke-width:1.0;" width="437" x="362" y="89.6094"/><text fill="#000000" font-family="sans-serif" font-size="14" font-weight="bold" lengthAdjust="spacing" textLength="143.917" x="508.5415" y="106.1426">Data Backup and ETL</text></g><!--cluster Cloud and Database Services--><g id="cluster_Cloud and Database Services"><rect fill="none" height="170" rx="2.5" ry="2.5" style="stroke:#181818;stroke-width:1.0;" width="1182" x="87" y="390.6094"/><text fill="#000000" font-family="sans-serif" font-size="14" font-weight="bold" lengthAdjust="spacing" textLength="196.0752" x="579.9624" y="407.1426">Cloud and Database Services</text></g><!--class Student--><g id="elem_Student"><rect codeLine="12" fill="#F1F1F1" height="118.4375" id="Student" rx="2.5" ry="2.5" style="stroke:#181818;stroke-width:0.5;" width="218.9648" x="1680.5" y="1071.6094"/><ellipse cx="1761.6016" cy="1087.6094" fill="#ADD1B2" rx="11" ry="11" style="stroke:#181818;stroke-width:1.0;"/><path d="M1764.3672,1083.4844 Q1764.5234,1083.2656 1764.7109,1083.1563 Q1764.8984,1083.0469 1765.1172,1083.0469 Q1765.4922,1083.0469 1765.7266,1083.3047 Q1765.9609,1083.5625 1765.9609,1084.1719 L1765.9609,1085.625 Q1765.9609,1086.2344 1765.7266,1086.5 Q1765.4922,1086.7656 1765.1172,1086.7656 Q1764.7734,1086.7656 1764.5703,1086.5625 Q1764.3672,1086.375 1764.2578,1085.8594 Q1764.2109,1085.5 1764.0234,1085.3125 Q1763.6953,1084.9375 1763.0859,1084.7188 Q1762.4766,1084.5 1761.8516,1084.5 Q1761.0859,1084.5 1760.4531,1084.8281 Q1759.8203,1085.1563 1759.3281,1085.9063 Q1758.8359,1086.6563 1758.8359,1087.6875 L1758.8359,1088.7813 Q1758.8359,1090.0156 1759.7266,1090.8359 Q1760.6172,1091.6563 1762.2109,1091.6563 Q1763.1484,1091.6563 1763.8047,1091.4063 Q1764.1953,1091.25 1764.6172,1090.8125 Q1764.8828,1090.5469 1765.0313,1090.4688 Q1765.1797,1090.3906 1765.3828,1090.3906 Q1765.7109,1090.3906 1765.9688,1090.6484 Q1766.2266,1090.9063 1766.2266,1091.25 Q1766.2266,1091.5938 1765.8828,1092 Q1765.3828,1092.5781 1764.5859,1092.9063 Q1763.5078,1093.3594 1762.2109,1093.3594 Q1760.6953,1093.3594 1759.4922,1092.7344 Q1758.5078,1092.2344 1757.8203,1091.1641 Q1757.1328,1090.0938 1757.1328,1088.8125 L1757.1328,1087.6563 Q1757.1328,1086.3281 1757.75,1085.1797 Q1758.3672,1084.0313 1759.4609,1083.4141 Q1760.5547,1082.7969 1761.7891,1082.7969 Q1762.5234,1082.7969 1763.1719,1082.9609 Q1763.8203,1083.125 1764.3672,1083.4844 Z " fill="#000000"/><text fill="#000000" font-family="sans-serif" font-size="14" lengthAdjust="spacing" textLength="48.2617" x="1782.1016" y="1093.3379">Student</text><line style="stroke:#181818;stroke-width:0.5;" x1="1681.5" x2="1898.4648" y1="1103.6094" y2="1103.6094"/><ellipse cx="1691.5" cy="1117.9141" fill="none" rx="3" ry="3" style="stroke:#038048;stroke-width:1.0;"/><text fill="#000000" font-family="sans-serif" font-size="14" lengthAdjust="spacing" textLength="119.0752" x="1700.5" y="1122.1426">int StudentID &#171;PK&#187;</text><ellipse cx="1691.5" cy="1135.5234" fill="none" rx="3" ry="3" style="stroke:#038048;stroke-width:1.0;"/><text fill="#000000" font-family="sans-serif" font-size="14" lengthAdjust="spacing" textLength="102.6826" x="1700.5" y="1139.752">string FirstName</text><ellipse cx="1691.5" cy="1153.1328" fill="none" rx="3" ry="3" style="stroke:#038048;stroke-width:1.0;"/><text fill="#000000" font-family="sans-serif" font-size="14" lengthAdjust="spacing" textLength="101.9307" x="1700.5" y="1157.3613">string LastName</text><line style="stroke:#181818;stroke-width:0.5;" x1="1681.5" x2="1898.4648" y1="1164.4375" y2="1164.4375"/><ellipse cx="1691.5" cy="1178.7422" fill="#84BE84" rx="3" ry="3" style="stroke:#038048;stroke-width:1.0;"/><text fill="#000000" font-family="sans-serif" font-size="14" lengthAdjust="spacing" textLength="192.9648" x="1700.5" y="1182.9707">EnrollInCourse(Course course)</text></g><!--class Course--><g id="elem_Course"><rect codeLine="19" fill="#F1F1F1" height="136.0469" id="Course" rx="2.5" ry="2.5" style="stroke:#181818;stroke-width:0.5;" width="289.0059" x="1243.5" y="1062.6094"/><ellipse cx="1361.1875" cy="1078.6094" fill="#ADD1B2" rx="11" ry="11" style="stroke:#181818;stroke-width:1.0;"/><path d="M1363.9531,1074.4844 Q1364.1094,1074.2656 1364.2969,1074.1563 Q1364.4844,1074.0469 1364.7031,1074.0469 Q1365.0781,1074.0469 1365.3125,1074.3047 Q1365.5469,1074.5625 1365.5469,1075.1719 L1365.5469,1076.625 Q1365.5469,1077.2344 1365.3125,1077.5 Q1365.0781,1077.7656 1364.7031,1077.7656 Q1364.3594,1077.7656 1364.1563,1077.5625 Q1363.9531,1077.375 1363.8438,1076.8594 Q1363.7969,1076.5 1363.6094,1076.3125 Q1363.2813,1075.9375 1362.6719,1075.7188 Q1362.0625,1075.5 1361.4375,1075.5 Q1360.6719,1075.5 1360.0391,1075.8281 Q1359.4063,1076.1563 1358.9141,1076.9063 Q1358.4219,1077.6563 1358.4219,1078.6875 L1358.4219,1079.7813 Q1358.4219,1081.0156 1359.3125,1081.8359 Q1360.2031,1082.6563 1361.7969,1082.6563 Q1362.7344,1082.6563 1363.3906,1082.4063 Q1363.7813,1082.25 1364.2031,1081.8125 Q1364.4688,1081.5469 1364.6172,1081.4688 Q1364.7656,1081.3906 1364.9688,1081.3906 Q1365.2969,1081.3906 1365.5547,1081.6484 Q1365.8125,1081.9063 1365.8125,1082.25 Q1365.8125,1082.5938 1365.4688,1083 Q1364.9688,1083.5781 1364.1719,1083.9063 Q1363.0938,1084.3594 1361.7969,1084.3594 Q1360.2813,1084.3594 1359.0781,1083.7344 Q1358.0938,1083.2344 1357.4063,1082.1641 Q1356.7188,1081.0938 1356.7188,1079.8125 L1356.7188,1078.6563 Q1356.7188,1077.3281 1357.3359,1076.1797 Q1357.9531,1075.0313 1359.0469,1074.4141 Q1360.1406,1073.7969 1361.375,1073.7969 Q1362.1094,1073.7969 1362.7578,1073.9609 Q1363.4063,1074.125 1363.9531,1074.4844 Z " fill="#000000"/><text fill="#000000" font-family="sans-serif" font-size="14" lengthAdjust="spacing" textLength="45.1309" x="1381.6875" y="1084.3379">Course</text><line style="stroke:#181818;stroke-width:0.5;" x1="1244.5" x2="1531.5059" y1="1094.6094" y2="1094.6094"/><ellipse cx="1254.5" cy="1108.9141" fill="none" rx="3" ry="3" style="stroke:#038048;stroke-width:1.0;"/><text fill="#000000" font-family="sans-serif" font-size="14" lengthAdjust="spacing" textLength="115.9443" x="1263.5" y="1113.1426">int CourseID &#171;PK&#187;</text><ellipse cx="1254.5" cy="1126.5234" fill="none" rx="3" ry="3" style="stroke:#038048;stroke-width:1.0;"/><text fill="#000000" font-family="sans-serif" font-size="14" lengthAdjust="spacing" textLength="120.5996" x="1263.5" y="1130.752">string CourseName</text><ellipse cx="1254.5" cy="1144.1328" fill="none" rx="3" ry="3" style="stroke:#038048;stroke-width:1.0;"/><text fill="#000000" font-family="sans-serif" font-size="14" lengthAdjust="spacing" textLength="116.7236" x="1263.5" y="1148.3613">string CourseCode</text><ellipse cx="1254.5" cy="1161.7422" fill="none" rx="3" ry="3" style="stroke:#038048;stroke-width:1.0;"/><text fill="#000000" font-family="sans-serif" font-size="14" lengthAdjust="spacing" textLength="63.0205" x="1263.5" y="1165.9707">int Credits</text><line style="stroke:#181818;stroke-width:0.5;" x1="1244.5" x2="1531.5059" y1="1173.0469" y2="1173.0469"/><ellipse cx="1254.5" cy="1187.3516" fill="#84BE84" rx="3" ry="3" style="stroke:#038048;stroke-width:1.0;"/><text fill="#000000" font-family="sans-serif" font-size="14" lengthAdjust="spacing" textLength="263.0059" x="1263.5" y="1191.5801">ManageEnrollment(Enrollment enrollment)</text></g><!--class Enrollment--><g id="elem_Enrollment"><rect codeLine="27" fill="#F1F1F1" height="118.4375" id="Enrollment" rx="2.5" ry="2.5" style="stroke:#181818;stroke-width:0.5;" width="351.2881" x="1212.5" y="1398.6094"/><ellipse cx="1350.4355" cy="1414.6094" fill="#ADD1B2" rx="11" ry="11" style="stroke:#181818;stroke-width:1.0;"/><path d="M1353.2012,1410.4844 Q1353.3574,1410.2656 1353.5449,1410.1563 Q1353.7324,1410.0469 1353.9512,1410.0469 Q1354.3262,1410.0469 1354.5605,1410.3047 Q1354.7949,1410.5625 1354.7949,1411.1719 L1354.7949,1412.625 Q1354.7949,1413.2344 1354.5605,1413.5 Q1354.3262,1413.7656 1353.9512,1413.7656 Q1353.6074,1413.7656 1353.4043,1413.5625 Q1353.2012,1413.375 1353.0918,1412.8594 Q1353.0449,1412.5 1352.8574,1412.3125 Q1352.5293,1411.9375 1351.9199,1411.7188 Q1351.3105,1411.5 1350.6855,1411.5 Q1349.9199,1411.5 1349.2871,1411.8281 Q1348.6543,1412.1563 1348.1621,1412.9063 Q1347.6699,1413.6563 1347.6699,1414.6875 L1347.6699,1415.7813 Q1347.6699,1417.0156 1348.5605,1417.8359 Q1349.4512,1418.6563 1351.0449,1418.6563 Q1351.9824,1418.6563 1352.6387,1418.4063 Q1353.0293,1418.25 1353.4512,1417.8125 Q1353.7168,1417.5469 1353.8652,1417.4688 Q1354.0137,1417.3906 1354.2168,1417.3906 Q1354.5449,1417.3906 1354.8027,1417.6484 Q1355.0605,1417.9063 1355.0605,1418.25 Q1355.0605,1418.5938 1354.7168,1419 Q1354.2168,1419.5781 1353.4199,1419.9063 Q1352.3418,1420.3594 1351.0449,1420.3594 Q1349.5293,1420.3594 1348.3262,1419.7344 Q1347.3418,1419.2344 1346.6543,1418.1641 Q1345.9668,1417.0938 1345.9668,1415.8125 L1345.9668,1414.6563 Q1345.9668,1413.3281 1346.584,1412.1797 Q1347.2012,1411.0313 1348.2949,1410.4141 Q1349.3887,1409.7969 1350.623,1409.7969 Q1351.3574,1409.7969 1352.0059,1409.9609 Q1352.6543,1410.125 1353.2012,1410.4844 Z " fill="#000000"/><text fill="#000000" font-family="sans-serif" font-size="14" lengthAdjust="spacing" textLength="66.917" x="1370.9355" y="1420.3379">Enrollment</text><line style="stroke:#181818;stroke-width:0.5;" x1="1213.5" x2="1562.7881" y1="1430.6094" y2="1430.6094"/><ellipse cx="1223.5" cy="1444.9141" fill="none" rx="3" ry="3" style="stroke:#038048;stroke-width:1.0;"/><text fill="#000000" font-family="sans-serif" font-size="14" lengthAdjust="spacing" textLength="137.7305" x="1232.5" y="1449.1426">int EnrollmentID &#171;PK&#187;</text><ellipse cx="1223.5" cy="1462.5234" fill="none" rx="3" ry="3" style="stroke:#038048;stroke-width:1.0;"/><text fill="#000000" font-family="sans-serif" font-size="14" lengthAdjust="spacing" textLength="325.2881" x="1232.5" y="1466.752">int StudentID &#171;FK&#187; -- References Student.StudentID</text><ellipse cx="1223.5" cy="1480.1328" fill="none" rx="3" ry="3" style="stroke:#038048;stroke-width:1.0;"/><text fill="#000000" font-family="sans-serif" font-size="14" lengthAdjust="spacing" textLength="315.8955" x="1232.5" y="1484.3613">int CourseID &#171;FK&#187; -- References Course.CourseID</text><ellipse cx="1223.5" cy="1497.7422" fill="none" rx="3" ry="3" style="stroke:#038048;stroke-width:1.0;"/><text fill="#000000" font-family="sans-serif" font-size="14" lengthAdjust="spacing" textLength="144.7305" x="1232.5" y="1501.9707">string EnrollmentStatus</text><line style="stroke:#181818;stroke-width:0.5;" x1="1213.5" x2="1562.7881" y1="1509.0469" y2="1509.0469"/></g><!--class AcademicRecord--><g id="elem_AcademicRecord"><rect codeLine="34" fill="#F1F1F1" height="118.4375" id="AcademicRecord" rx="2.5" ry="2.5" style="stroke:#181818;stroke-width:0.5;" width="351.2881" x="1663.5" y="1398.6094"/><ellipse cx="1781.5942" cy="1414.6094" fill="#ADD1B2" rx="11" ry="11" style="stroke:#181818;stroke-width:1.0;"/><path d="M1784.3599,1410.4844 Q1784.5161,1410.2656 1784.7036,1410.1563 Q1784.8911,1410.0469 1785.1099,1410.0469 Q1785.4849,1410.0469 1785.7192,1410.3047 Q1785.9536,1410.5625 1785.9536,1411.1719 L1785.9536,1412.625 Q1785.9536,1413.2344 1785.7192,1413.5 Q1785.4849,1413.7656 1785.1099,1413.7656 Q1784.7661,1413.7656 1784.563,1413.5625 Q1784.3599,1413.375 1784.2505,1412.8594 Q1784.2036,1412.5 1784.0161,1412.3125 Q1783.688,1411.9375 1783.0786,1411.7188 Q1782.4692,1411.5 1781.8442,1411.5 Q1781.0786,1411.5 1780.4458,1411.8281 Q1779.813,1412.1563 1779.3208,1412.9063 Q1778.8286,1413.6563 1778.8286,1414.6875 L1778.8286,1415.7813 Q1778.8286,1417.0156 1779.7192,1417.8359 Q1780.6099,1418.6563 1782.2036,1418.6563 Q1783.1411,1418.6563 1783.7974,1418.4063 Q1784.188,1418.25 1784.6099,1417.8125 Q1784.8755,1417.5469 1785.0239,1417.4688 Q1785.1724,1417.3906 1785.3755,1417.3906 Q1785.7036,1417.3906 1785.9614,1417.6484 Q1786.2192,1417.9063 1786.2192,1418.25 Q1786.2192,1418.5938 1785.8755,1419 Q1785.3755,1419.5781 1784.5786,1419.9063 Q1783.5005,1420.3594 1782.2036,1420.3594 Q1780.688,1420.3594 1779.4849,1419.7344 Q1778.5005,1419.2344 1777.813,1418.1641 Q1777.1255,1417.0938 1777.1255,1415.8125 L1777.1255,1414.6563 Q1777.1255,1413.3281 1777.7427,1412.1797 Q1778.3599,1411.0313 1779.4536,1410.4141 Q1780.5474,1409.7969 1781.7817,1409.7969 Q1782.5161,1409.7969 1783.1646,1409.9609 Q1783.813,1410.125 1784.3599,1410.4844 Z " fill="#000000"/><text fill="#000000" font-family="sans-serif" font-size="14" lengthAdjust="spacing" textLength="106.5996" x="1802.0942" y="1420.3379">AcademicRecord</text><line style="stroke:#181818;stroke-width:0.5;" x1="1664.5" x2="2013.7881" y1="1430.6094" y2="1430.6094"/><ellipse cx="1674.5" cy="1444.9141" fill="none" rx="3" ry="3" style="stroke:#038048;stroke-width:1.0;"/><text fill="#000000" font-family="sans-serif" font-size="14" lengthAdjust="spacing" textLength="115.9443" x="1683.5" y="1449.1426">int RecordID &#171;PK&#187;</text><ellipse cx="1674.5" cy="1462.5234" fill="none" rx="3" ry="3" style="stroke:#038048;stroke-width:1.0;"/><text fill="#000000" font-family="sans-serif" font-size="14" lengthAdjust="spacing" textLength="325.2881" x="1683.5" y="1466.752">int StudentID &#171;FK&#187; -- References Student.StudentID</text><ellipse cx="1674.5" cy="1480.1328" fill="none" rx="3" ry="3" style="stroke:#038048;stroke-width:1.0;"/><text fill="#000000" font-family="sans-serif" font-size="14" lengthAdjust="spacing" textLength="315.8955" x="1683.5" y="1484.3613">int CourseID &#171;FK&#187; -- References Course.CourseID</text><ellipse cx="1674.5" cy="1497.7422" fill="none" rx="3" ry="3" style="stroke:#038048;stroke-width:1.0;"/><text fill="#000000" font-family="sans-serif" font-size="14" lengthAdjust="spacing" textLength="77.0342" x="1683.5" y="1501.9707">string Grade</text><line style="stroke:#181818;stroke-width:0.5;" x1="1664.5" x2="2013.7881" y1="1509.0469" y2="1509.0469"/></g><!--class CourseRepository--><g id="elem_CourseRepository"><rect codeLine="44" fill="#F1F1F1" height="118.4375" id="CourseRepository" rx="2.5" ry="2.5" style="stroke:#181818;stroke-width:0.5;" width="216.6406" x="427.5" y="744.6094"/><ellipse cx="475.5464" cy="760.6094" fill="#ADD1B2" rx="11" ry="11" style="stroke:#181818;stroke-width:1.0;"/><path d="M478.312,756.4844 Q478.4683,756.2656 478.6558,756.1563 Q478.8433,756.0469 479.062,756.0469 Q479.437,756.0469 479.6714,756.3047 Q479.9058,756.5625 479.9058,757.1719 L479.9058,758.625 Q479.9058,759.2344 479.6714,759.5 Q479.437,759.7656 479.062,759.7656 Q478.7183,759.7656 478.5151,759.5625 Q478.312,759.375 478.2026,758.8594 Q478.1558,758.5 477.9683,758.3125 Q477.6401,757.9375 477.0308,757.7188 Q476.4214,757.5 475.7964,757.5 Q475.0308,757.5 474.3979,757.8281 Q473.7651,758.1563 473.2729,758.9063 Q472.7808,759.6563 472.7808,760.6875 L472.7808,761.7813 Q472.7808,763.0156 473.6714,763.8359 Q474.562,764.6563 476.1558,764.6563 Q477.0933,764.6563 477.7495,764.4063 Q478.1401,764.25 478.562,763.8125 Q478.8276,763.5469 478.9761,763.4688 Q479.1245,763.3906 479.3276,763.3906 Q479.6558,763.3906 479.9136,763.6484 Q480.1714,763.9063 480.1714,764.25 Q480.1714,764.5938 479.8276,765 Q479.3276,765.5781 478.5308,765.9063 Q477.4526,766.3594 476.1558,766.3594 Q474.6401,766.3594 473.437,765.7344 Q472.4526,765.2344 471.7651,764.1641 Q471.0776,763.0938 471.0776,761.8125 L471.0776,760.6563 Q471.0776,759.3281 471.6948,758.1797 Q472.312,757.0313 473.4058,756.4141 Q474.4995,755.7969 475.7339,755.7969 Q476.4683,755.7969 477.1167,755.9609 Q477.7651,756.125 478.312,756.4844 Z " fill="#000000"/><text fill="#000000" font-family="sans-serif" font-size="14" lengthAdjust="spacing" textLength="112.0479" x="496.0464" y="766.3379">CourseRepository</text><line style="stroke:#181818;stroke-width:0.5;" x1="428.5" x2="643.1406" y1="776.6094" y2="776.6094"/><line style="stroke:#181818;stroke-width:0.5;" x1="428.5" x2="643.1406" y1="784.6094" y2="784.6094"/><ellipse cx="438.5" cy="798.9141" fill="#84BE84" rx="3" ry="3" style="stroke:#038048;stroke-width:1.0;"/><text fill="#000000" font-family="sans-serif" font-size="14" lengthAdjust="spacing" textLength="170.4063" x="447.5" y="803.1426">AddCourse(Course course)</text><ellipse cx="438.5" cy="816.5234" fill="#84BE84" rx="3" ry="3" style="stroke:#038048;stroke-width:1.0;"/><text fill="#000000" font-family="sans-serif" font-size="14" lengthAdjust="spacing" textLength="151.7168" x="447.5" y="820.752">GetCourse(int courseID)</text><ellipse cx="438.5" cy="834.1328" fill="#84BE84" rx="3" ry="3" style="stroke:#038048;stroke-width:1.0;"/><text fill="#000000" font-family="sans-serif" font-size="14" lengthAdjust="spacing" textLength="190.6406" x="447.5" y="838.3613">UpdateCourse(Course course)</text><ellipse cx="438.5" cy="851.7422" fill="#84BE84" rx="3" ry="3" style="stroke:#038048;stroke-width:1.0;"/><text fill="#000000" font-family="sans-serif" font-size="14" lengthAdjust="spacing" textLength="181.2822" x="447.5" y="855.9707">RemoveCourse(int courseID)</text></g><!--class StudentRepository--><g id="elem_StudentRepository"><rect codeLine="51" fill="#F1F1F1" height="118.4375" id="StudentRepository" rx="2.5" ry="2.5" style="stroke:#181818;stroke-width:0.5;" width="226.8057" x="744.5" y="744.6094"/><ellipse cx="796.0635" cy="760.6094" fill="#ADD1B2" rx="11" ry="11" style="stroke:#181818;stroke-width:1.0;"/><path d="M798.8291,756.4844 Q798.9854,756.2656 799.1729,756.1563 Q799.3604,756.0469 799.5791,756.0469 Q799.9541,756.0469 800.1885,756.3047 Q800.4229,756.5625 800.4229,757.1719 L800.4229,758.625 Q800.4229,759.2344 800.1885,759.5 Q799.9541,759.7656 799.5791,759.7656 Q799.2354,759.7656 799.0322,759.5625 Q798.8291,759.375 798.7197,758.8594 Q798.6729,758.5 798.4854,758.3125 Q798.1572,757.9375 797.5479,757.7188 Q796.9385,757.5 796.3135,757.5 Q795.5479,757.5 794.915,757.8281 Q794.2822,758.1563 793.79,758.9063 Q793.2979,759.6563 793.2979,760.6875 L793.2979,761.7813 Q793.2979,763.0156 794.1885,763.8359 Q795.0791,764.6563 796.6729,764.6563 Q797.6104,764.6563 798.2666,764.4063 Q798.6572,764.25 799.0791,763.8125 Q799.3447,763.5469 799.4932,763.4688 Q799.6416,763.3906 799.8447,763.3906 Q800.1729,763.3906 800.4307,763.6484 Q800.6885,763.9063 800.6885,764.25 Q800.6885,764.5938 800.3447,765 Q799.8447,765.5781 799.0479,765.9063 Q797.9697,766.3594 796.6729,766.3594 Q795.1572,766.3594 793.9541,765.7344 Q792.9697,765.2344 792.2822,764.1641 Q791.5947,763.0938 791.5947,761.8125 L791.5947,760.6563 Q791.5947,759.3281 792.2119,758.1797 Q792.8291,757.0313 793.9229,756.4141 Q795.0166,755.7969 796.251,755.7969 Q796.9854,755.7969 797.6338,755.9609 Q798.2822,756.125 798.8291,756.4844 Z " fill="#000000"/><text fill="#000000" font-family="sans-serif" font-size="14" lengthAdjust="spacing" textLength="115.1787" x="816.5635" y="766.3379">StudentRepository</text><line style="stroke:#181818;stroke-width:0.5;" x1="745.5" x2="970.3057" y1="776.6094" y2="776.6094"/><line style="stroke:#181818;stroke-width:0.5;" x1="745.5" x2="970.3057" y1="784.6094" y2="784.6094"/><ellipse cx="755.5" cy="798.9141" fill="#84BE84" rx="3" ry="3" style="stroke:#038048;stroke-width:1.0;"/><text fill="#000000" font-family="sans-serif" font-size="14" lengthAdjust="spacing" textLength="180.5713" x="764.5" y="803.1426">AddStudent(Student student)</text><ellipse cx="755.5" cy="816.5234" fill="#84BE84" rx="3" ry="3" style="stroke:#038048;stroke-width:1.0;"/><text fill="#000000" font-family="sans-serif" font-size="14" lengthAdjust="spacing" textLength="158.751" x="764.5" y="820.752">GetStudent(int studentID)</text><ellipse cx="755.5" cy="834.1328" fill="#84BE84" rx="3" ry="3" style="stroke:#038048;stroke-width:1.0;"/><text fill="#000000" font-family="sans-serif" font-size="14" lengthAdjust="spacing" textLength="200.8057" x="764.5" y="838.3613">UpdateStudent(Student student)</text><ellipse cx="755.5" cy="851.7422" fill="#84BE84" rx="3" ry="3" style="stroke:#038048;stroke-width:1.0;"/><text fill="#000000" font-family="sans-serif" font-size="14" lengthAdjust="spacing" textLength="188.3164" x="764.5" y="855.9707">RemoveStudent(int studentID)</text></g><!--class AuthController--><g id="elem_AuthController"><rect codeLine="61" fill="#F1F1F1" height="83.2188" id="AuthController" rx="2.5" ry="2.5" style="stroke:#181818;stroke-width:0.5;" width="241.5439" x="3443" y="134.6094"/><ellipse cx="3514.7773" cy="150.6094" fill="#ADD1B2" rx="11" ry="11" style="stroke:#181818;stroke-width:1.0;"/><path d="M3517.543,146.4844 Q3517.6992,146.2656 3517.8867,146.1563 Q3518.0742,146.0469 3518.293,146.0469 Q3518.668,146.0469 3518.9023,146.3047 Q3519.1367,146.5625 3519.1367,147.1719 L3519.1367,148.625 Q3519.1367,149.2344 3518.9023,149.5 Q3518.668,149.7656 3518.293,149.7656 Q3517.9492,149.7656 3517.7461,149.5625 Q3517.543,149.375 3517.4336,148.8594 Q3517.3867,148.5 3517.1992,148.3125 Q3516.8711,147.9375 3516.2617,147.7188 Q3515.6523,147.5 3515.0273,147.5 Q3514.2617,147.5 3513.6289,147.8281 Q3512.9961,148.1563 3512.5039,148.9063 Q3512.0117,149.6563 3512.0117,150.6875 L3512.0117,151.7813 Q3512.0117,153.0156 3512.9023,153.8359 Q3513.793,154.6563 3515.3867,154.6563 Q3516.3242,154.6563 3516.9805,154.4063 Q3517.3711,154.25 3517.793,153.8125 Q3518.0586,153.5469 3518.207,153.4688 Q3518.3555,153.3906 3518.5586,153.3906 Q3518.8867,153.3906 3519.1445,153.6484 Q3519.4023,153.9063 3519.4023,154.25 Q3519.4023,154.5938 3519.0586,155 Q3518.5586,155.5781 3517.7617,155.9063 Q3516.6836,156.3594 3515.3867,156.3594 Q3513.8711,156.3594 3512.668,155.7344 Q3511.6836,155.2344 3510.9961,154.1641 Q3510.3086,153.0938 3510.3086,151.8125 L3510.3086,150.6563 Q3510.3086,149.3281 3510.9258,148.1797 Q3511.543,147.0313 3512.6367,146.4141 Q3513.7305,145.7969 3514.9648,145.7969 Q3515.6992,145.7969 3516.3477,145.9609 Q3516.9961,146.125 3517.543,146.4844 Z " fill="#000000"/><text fill="#000000" font-family="sans-serif" font-size="14" lengthAdjust="spacing" textLength="89.4893" x="3535.2773" y="156.3379">AuthController</text><line style="stroke:#181818;stroke-width:0.5;" x1="3444" x2="3683.5439" y1="166.6094" y2="166.6094"/><line style="stroke:#181818;stroke-width:0.5;" x1="3444" x2="3683.5439" y1="174.6094" y2="174.6094"/><ellipse cx="3454" cy="188.9141" fill="#84BE84" rx="3" ry="3" style="stroke:#038048;stroke-width:1.0;"/><text fill="#000000" font-family="sans-serif" font-size="14" lengthAdjust="spacing" textLength="215.5439" x="3463" y="193.1426">Login(UserCredentials credentials)</text><ellipse cx="3454" cy="206.5234" fill="#84BE84" rx="3" ry="3" style="stroke:#038048;stroke-width:1.0;"/><text fill="#000000" font-family="sans-serif" font-size="14" lengthAdjust="spacing" textLength="109.7305" x="3463" y="210.752">Logout(int userId)</text></g><!--class SSOHandler--><g id="elem_SSOHandler"><rect codeLine="66" fill="#F1F1F1" height="65.6094" id="SSOHandler" rx="2.5" ry="2.5" style="stroke:#181818;stroke-width:0.5;" width="170.7236" x="3627.5" y="452.6094"/><ellipse cx="3669.5589" cy="468.6094" fill="#ADD1B2" rx="11" ry="11" style="stroke:#181818;stroke-width:1.0;"/><path d="M3672.3245,464.4844 Q3672.4808,464.2656 3672.6683,464.1563 Q3672.8558,464.0469 3673.0745,464.0469 Q3673.4495,464.0469 3673.6839,464.3047 Q3673.9183,464.5625 3673.9183,465.1719 L3673.9183,466.625 Q3673.9183,467.2344 3673.6839,467.5 Q3673.4495,467.7656 3673.0745,467.7656 Q3672.7308,467.7656 3672.5276,467.5625 Q3672.3245,467.375 3672.2151,466.8594 Q3672.1683,466.5 3671.9808,466.3125 Q3671.6526,465.9375 3671.0433,465.7188 Q3670.4339,465.5 3669.8089,465.5 Q3669.0433,465.5 3668.4104,465.8281 Q3667.7776,466.1563 3667.2854,466.9063 Q3666.7933,467.6563 3666.7933,468.6875 L3666.7933,469.7813 Q3666.7933,471.0156 3667.6839,471.8359 Q3668.5745,472.6563 3670.1683,472.6563 Q3671.1058,472.6563 3671.762,472.4063 Q3672.1526,472.25 3672.5745,471.8125 Q3672.8401,471.5469 3672.9886,471.4688 Q3673.137,471.3906 3673.3401,471.3906 Q3673.6683,471.3906 3673.9261,471.6484 Q3674.1839,471.9063 3674.1839,472.25 Q3674.1839,472.5938 3673.8401,473 Q3673.3401,473.5781 3672.5433,473.9063 Q3671.4651,474.3594 3670.1683,474.3594 Q3668.6526,474.3594 3667.4495,473.7344 Q3666.4651,473.2344 3665.7776,472.1641 Q3665.0901,471.0938 3665.0901,469.8125 L3665.0901,468.6563 Q3665.0901,467.3281 3665.7073,466.1797 Q3666.3245,465.0313 3667.4183,464.4141 Q3668.512,463.7969 3669.7464,463.7969 Q3670.4808,463.7969 3671.1292,463.9609 Q3671.7776,464.125 3672.3245,464.4844 Z " fill="#000000"/><text fill="#000000" font-family="sans-serif" font-size="14" lengthAdjust="spacing" textLength="78.5928" x="3689.572" y="474.3379">SSOHandler</text><line style="stroke:#181818;stroke-width:0.5;" x1="3628.5" x2="3797.2236" y1="484.6094" y2="484.6094"/><line style="stroke:#181818;stroke-width:0.5;" x1="3628.5" x2="3797.2236" y1="492.6094" y2="492.6094"/><ellipse cx="3638.5" cy="506.9141" fill="#84BE84" rx="3" ry="3" style="stroke:#038048;stroke-width:1.0;"/><text fill="#000000" font-family="sans-serif" font-size="14" lengthAdjust="spacing" textLength="144.7236" x="3647.5" y="511.1426">AuthenticateWithSSO()</text></g><!--class TokenManager--><g id="elem_TokenManager"><rect codeLine="70" fill="#F1F1F1" height="83.2188" id="TokenManager" rx="2.5" ry="2.5" style="stroke:#181818;stroke-width:0.5;" width="197.1992" x="3330.5" y="444.1094"/><ellipse cx="3377.7671" cy="460.1094" fill="#ADD1B2" rx="11" ry="11" style="stroke:#181818;stroke-width:1.0;"/><path d="M3380.5327,455.9844 Q3380.689,455.7656 3380.8765,455.6563 Q3381.064,455.5469 3381.2827,455.5469 Q3381.6577,455.5469 3381.8921,455.8047 Q3382.1265,456.0625 3382.1265,456.6719 L3382.1265,458.125 Q3382.1265,458.7344 3381.8921,459 Q3381.6577,459.2656 3381.2827,459.2656 Q3380.939,459.2656 3380.7358,459.0625 Q3380.5327,458.875 3380.4233,458.3594 Q3380.3765,458 3380.189,457.8125 Q3379.8608,457.4375 3379.2515,457.2188 Q3378.6421,457 3378.0171,457 Q3377.2515,457 3376.6187,457.3281 Q3375.9858,457.6563 3375.4937,458.4063 Q3375.0015,459.1563 3375.0015,460.1875 L3375.0015,461.2813 Q3375.0015,462.5156 3375.8921,463.3359 Q3376.7827,464.1563 3378.3765,464.1563 Q3379.314,464.1563 3379.9702,463.9063 Q3380.3608,463.75 3380.7827,463.3125 Q3381.0483,463.0469 3381.1968,462.9688 Q3381.3452,462.8906 3381.5483,462.8906 Q3381.8765,462.8906 3382.1343,463.1484 Q3382.3921,463.4063 3382.3921,463.75 Q3382.3921,464.0938 3382.0483,464.5 Q3381.5483,465.0781 3380.7515,465.4063 Q3379.6733,465.8594 3378.3765,465.8594 Q3376.8608,465.8594 3375.6577,465.2344 Q3374.6733,464.7344 3373.9858,463.6641 Q3373.2983,462.5938 3373.2983,461.3125 L3373.2983,460.1563 Q3373.2983,458.8281 3373.9155,457.6797 Q3374.5327,456.5313 3375.6265,455.9141 Q3376.7202,455.2969 3377.9546,455.2969 Q3378.689,455.2969 3379.3374,455.4609 Q3379.9858,455.625 3380.5327,455.9844 Z " fill="#000000"/><text fill="#000000" font-family="sans-serif" font-size="14" lengthAdjust="spacing" textLength="94.165" x="3398.2671" y="465.8379">TokenManager</text><line style="stroke:#181818;stroke-width:0.5;" x1="3331.5" x2="3526.6992" y1="476.1094" y2="476.1094"/><line style="stroke:#181818;stroke-width:0.5;" x1="3331.5" x2="3526.6992" y1="484.1094" y2="484.1094"/><ellipse cx="3341.5" cy="498.4141" fill="#84BE84" rx="3" ry="3" style="stroke:#038048;stroke-width:1.0;"/><text fill="#000000" font-family="sans-serif" font-size="14" lengthAdjust="spacing" textLength="164.1924" x="3350.5" y="502.6426">GenerateToken(int userId)</text><ellipse cx="3341.5" cy="516.0234" fill="#84BE84" rx="3" ry="3" style="stroke:#038048;stroke-width:1.0;"/><text fill="#000000" font-family="sans-serif" font-size="14" lengthAdjust="spacing" textLength="171.1992" x="3350.5" y="520.252">ValidateToken(string token)</text></g><!--class RBACManager--><g id="elem_RBACManager"><rect codeLine="75" fill="#F1F1F1" height="65.6094" id="RBACManager" rx="2.5" ry="2.5" style="stroke:#181818;stroke-width:0.5;" width="292.0957" x="3374" y="770.6094"/><ellipse cx="3468.7222" cy="786.6094" fill="#ADD1B2" rx="11" ry="11" style="stroke:#181818;stroke-width:1.0;"/><path d="M3471.4878,782.4844 Q3471.644,782.2656 3471.8315,782.1563 Q3472.019,782.0469 3472.2378,782.0469 Q3472.6128,782.0469 3472.8472,782.3047 Q3473.0815,782.5625 3473.0815,783.1719 L3473.0815,784.625 Q3473.0815,785.2344 3472.8472,785.5 Q3472.6128,785.7656 3472.2378,785.7656 Q3471.894,785.7656 3471.6909,785.5625 Q3471.4878,785.375 3471.3784,784.8594 Q3471.3315,784.5 3471.144,784.3125 Q3470.8159,783.9375 3470.2065,783.7188 Q3469.5972,783.5 3468.9722,783.5 Q3468.2065,783.5 3467.5737,783.8281 Q3466.9409,784.1563 3466.4487,784.9063 Q3465.9565,785.6563 3465.9565,786.6875 L3465.9565,787.7813 Q3465.9565,789.0156 3466.8472,789.8359 Q3467.7378,790.6563 3469.3315,790.6563 Q3470.269,790.6563 3470.9253,790.4063 Q3471.3159,790.25 3471.7378,789.8125 Q3472.0034,789.5469 3472.1519,789.4688 Q3472.3003,789.3906 3472.5034,789.3906 Q3472.8315,789.3906 3473.0894,789.6484 Q3473.3472,789.9063 3473.3472,790.25 Q3473.3472,790.5938 3473.0034,791 Q3472.5034,791.5781 3471.7065,791.9063 Q3470.6284,792.3594 3469.3315,792.3594 Q3467.8159,792.3594 3466.6128,791.7344 Q3465.6284,791.2344 3464.9409,790.1641 Q3464.2534,789.0938 3464.2534,787.8125 L3464.2534,786.6563 Q3464.2534,785.3281 3464.8706,784.1797 Q3465.4878,783.0313 3466.5815,782.4141 Q3467.6753,781.7969 3468.9097,781.7969 Q3469.644,781.7969 3470.2925,781.9609 Q3470.9409,782.125 3471.4878,782.4844 Z " fill="#000000"/><text fill="#000000" font-family="sans-serif" font-size="14" lengthAdjust="spacing" textLength="94.1514" x="3489.2222" y="792.3379">RBACManager</text><line style="stroke:#181818;stroke-width:0.5;" x1="3375" x2="3665.0957" y1="802.6094" y2="802.6094"/><line style="stroke:#181818;stroke-width:0.5;" x1="3375" x2="3665.0957" y1="810.6094" y2="810.6094"/><ellipse cx="3385" cy="824.9141" fill="#84BE84" rx="3" ry="3" style="stroke:#038048;stroke-width:1.0;"/><text fill="#000000" font-family="sans-serif" font-size="14" lengthAdjust="spacing" textLength="266.0957" x="3394" y="829.1426">CheckPermissions(int userId, string action)</text></g><!--class CourseManager--><g id="elem_CourseManager"><rect codeLine="82" fill="#F1F1F1" height="100.8281" id="CourseManager" rx="2.5" ry="2.5" style="stroke:#181818;stroke-width:0.5;" width="216.6406" x="2175.5" y="435.1094"/><ellipse cx="2229.3774" cy="451.1094" fill="#ADD1B2" rx="11" ry="11" style="stroke:#181818;stroke-width:1.0;"/><path d="M2232.1431,446.9844 Q2232.2993,446.7656 2232.4868,446.6563 Q2232.6743,446.5469 2232.8931,446.5469 Q2233.2681,446.5469 2233.5024,446.8047 Q2233.7368,447.0625 2233.7368,447.6719 L2233.7368,449.125 Q2233.7368,449.7344 2233.5024,450 Q2233.2681,450.2656 2232.8931,450.2656 Q2232.5493,450.2656 2232.3462,450.0625 Q2232.1431,449.875 2232.0337,449.3594 Q2231.9868,449 2231.7993,448.8125 Q2231.4712,448.4375 2230.8618,448.2188 Q2230.2524,448 2229.6274,448 Q2228.8618,448 2228.229,448.3281 Q2227.5962,448.6563 2227.104,449.4063 Q2226.6118,450.1563 2226.6118,451.1875 L2226.6118,452.2813 Q2226.6118,453.5156 2227.5024,454.3359 Q2228.3931,455.1563 2229.9868,455.1563 Q2230.9243,455.1563 2231.5806,454.9063 Q2231.9712,454.75 2232.3931,454.3125 Q2232.6587,454.0469 2232.8071,453.9688 Q2232.9556,453.8906 2233.1587,453.8906 Q2233.4868,453.8906 2233.7446,454.1484 Q2234.0024,454.4063 2234.0024,454.75 Q2234.0024,455.0938 2233.6587,455.5 Q2233.1587,456.0781 2232.3618,456.4063 Q2231.2837,456.8594 2229.9868,456.8594 Q2228.4712,456.8594 2227.2681,456.2344 Q2226.2837,455.7344 2225.5962,454.6641 Q2224.9087,453.5938 2224.9087,452.3125 L2224.9087,451.1563 Q2224.9087,449.8281 2225.5259,448.6797 Q2226.1431,447.5313 2227.2368,446.9141 Q2228.3306,446.2969 2229.5649,446.2969 Q2230.2993,446.2969 2230.9478,446.4609 Q2231.5962,446.625 2232.1431,446.9844 Z " fill="#000000"/><text fill="#000000" font-family="sans-serif" font-size="14" lengthAdjust="spacing" textLength="100.3857" x="2249.8774" y="456.8379">CourseManager</text><line style="stroke:#181818;stroke-width:0.5;" x1="2176.5" x2="2391.1406" y1="467.1094" y2="467.1094"/><line style="stroke:#181818;stroke-width:0.5;" x1="2176.5" x2="2391.1406" y1="475.1094" y2="475.1094"/><ellipse cx="2186.5" cy="489.4141" fill="#84BE84" rx="3" ry="3" style="stroke:#038048;stroke-width:1.0;"/><text fill="#000000" font-family="sans-serif" font-size="14" lengthAdjust="spacing" textLength="170.4063" x="2195.5" y="493.6426">AddCourse(Course course)</text><ellipse cx="2186.5" cy="507.0234" fill="#84BE84" rx="3" ry="3" style="stroke:#038048;stroke-width:1.0;"/><text fill="#000000" font-family="sans-serif" font-size="14" lengthAdjust="spacing" textLength="190.6406" x="2195.5" y="511.252">UpdateCourse(Course course)</text><ellipse cx="2186.5" cy="524.6328" fill="#84BE84" rx="3" ry="3" style="stroke:#038048;stroke-width:1.0;"/><text fill="#000000" font-family="sans-serif" font-size="14" lengthAdjust="spacing" textLength="189.8408" x="2195.5" y="528.8613">CheckAvailability(int courseID)</text></g><!--class EnrollmentProcessor--><g id="elem_EnrollmentProcessor"><rect codeLine="88" fill="#F1F1F1" height="83.2188" id="EnrollmentProcessor" rx="2.5" ry="2.5" style="stroke:#181818;stroke-width:0.5;" width="349.709" x="1725" y="444.1094"/><ellipse cx="1830.6357" cy="460.1094" fill="#ADD1B2" rx="11" ry="11" style="stroke:#181818;stroke-width:1.0;"/><path d="M1833.4014,455.9844 Q1833.5576,455.7656 1833.7451,455.6563 Q1833.9326,455.5469 1834.1514,455.5469 Q1834.5264,455.5469 1834.7607,455.8047 Q1834.9951,456.0625 1834.9951,456.6719 L1834.9951,458.125 Q1834.9951,458.7344 1834.7607,459 Q1834.5264,459.2656 1834.1514,459.2656 Q1833.8076,459.2656 1833.6045,459.0625 Q1833.4014,458.875 1833.292,458.3594 Q1833.2451,458 1833.0576,457.8125 Q1832.7295,457.4375 1832.1201,457.2188 Q1831.5107,457 1830.8857,457 Q1830.1201,457 1829.4873,457.3281 Q1828.8545,457.6563 1828.3623,458.4063 Q1827.8701,459.1563 1827.8701,460.1875 L1827.8701,461.2813 Q1827.8701,462.5156 1828.7607,463.3359 Q1829.6514,464.1563 1831.2451,464.1563 Q1832.1826,464.1563 1832.8389,463.9063 Q1833.2295,463.75 1833.6514,463.3125 Q1833.917,463.0469 1834.0654,462.9688 Q1834.2139,462.8906 1834.417,462.8906 Q1834.7451,462.8906 1835.0029,463.1484 Q1835.2607,463.4063 1835.2607,463.75 Q1835.2607,464.0938 1834.917,464.5 Q1834.417,465.0781 1833.6201,465.4063 Q1832.542,465.8594 1831.2451,465.8594 Q1829.7295,465.8594 1828.5264,465.2344 Q1827.542,464.7344 1826.8545,463.6641 Q1826.167,462.5938 1826.167,461.3125 L1826.167,460.1563 Q1826.167,458.8281 1826.7842,457.6797 Q1827.4014,456.5313 1828.4951,455.9141 Q1829.5889,455.2969 1830.8232,455.2969 Q1831.5576,455.2969 1832.2061,455.4609 Q1832.8545,455.625 1833.4014,455.9844 Z " fill="#000000"/><text fill="#000000" font-family="sans-serif" font-size="14" lengthAdjust="spacing" textLength="129.9375" x="1851.1357" y="465.8379">EnrollmentProcessor</text><line style="stroke:#181818;stroke-width:0.5;" x1="1726" x2="2073.709" y1="476.1094" y2="476.1094"/><line style="stroke:#181818;stroke-width:0.5;" x1="1726" x2="2073.709" y1="484.1094" y2="484.1094"/><ellipse cx="1736" cy="498.4141" fill="#84BE84" rx="3" ry="3" style="stroke:#038048;stroke-width:1.0;"/><text fill="#000000" font-family="sans-serif" font-size="14" lengthAdjust="spacing" textLength="323.709" x="1745" y="502.6426">ProcessEnrollment(Student student, Course course)</text><ellipse cx="1736" cy="516.0234" fill="#84BE84" rx="3" ry="3" style="stroke:#038048;stroke-width:1.0;"/><text fill="#000000" font-family="sans-serif" font-size="14" lengthAdjust="spacing" textLength="217.8613" x="1745" y="520.252">CancelEnrollment(int enrollmentID)</text></g><!--class SeatAllocator--><g id="elem_SeatAllocator"><rect codeLine="93" fill="#F1F1F1" height="83.2188" id="SeatAllocator" rx="2.5" ry="2.5" style="stroke:#181818;stroke-width:0.5;" width="206.5303" x="1796.5" y="762.1094"/><ellipse cx="1853.8809" cy="778.1094" fill="#ADD1B2" rx="11" ry="11" style="stroke:#181818;stroke-width:1.0;"/><path d="M1856.6465,773.9844 Q1856.8027,773.7656 1856.9902,773.6563 Q1857.1777,773.5469 1857.3965,773.5469 Q1857.7715,773.5469 1858.0059,773.8047 Q1858.2402,774.0625 1858.2402,774.6719 L1858.2402,776.125 Q1858.2402,776.7344 1858.0059,777 Q1857.7715,777.2656 1857.3965,777.2656 Q1857.0527,777.2656 1856.8496,777.0625 Q1856.6465,776.875 1856.5371,776.3594 Q1856.4902,776 1856.3027,775.8125 Q1855.9746,775.4375 1855.3652,775.2188 Q1854.7559,775 1854.1309,775 Q1853.3652,775 1852.7324,775.3281 Q1852.0996,775.6563 1851.6074,776.4063 Q1851.1152,777.1563 1851.1152,778.1875 L1851.1152,779.2813 Q1851.1152,780.5156 1852.0059,781.3359 Q1852.8965,782.1563 1854.4902,782.1563 Q1855.4277,782.1563 1856.084,781.9063 Q1856.4746,781.75 1856.8965,781.3125 Q1857.1621,781.0469 1857.3105,780.9688 Q1857.459,780.8906 1857.6621,780.8906 Q1857.9902,780.8906 1858.248,781.1484 Q1858.5059,781.4063 1858.5059,781.75 Q1858.5059,782.0938 1858.1621,782.5 Q1857.6621,783.0781 1856.8652,783.4063 Q1855.7871,783.8594 1854.4902,783.8594 Q1852.9746,783.8594 1851.7715,783.2344 Q1850.7871,782.7344 1850.0996,781.6641 Q1849.4121,780.5938 1849.4121,779.3125 L1849.4121,778.1563 Q1849.4121,776.8281 1850.0293,775.6797 Q1850.6465,774.5313 1851.7402,773.9141 Q1852.834,773.2969 1854.0684,773.2969 Q1854.8027,773.2969 1855.4512,773.4609 Q1856.0996,773.625 1856.6465,773.9844 Z " fill="#000000"/><text fill="#000000" font-family="sans-serif" font-size="14" lengthAdjust="spacing" textLength="83.2686" x="1874.3809" y="783.8379">SeatAllocator</text><line style="stroke:#181818;stroke-width:0.5;" x1="1797.5" x2="2002.0303" y1="794.1094" y2="794.1094"/><line style="stroke:#181818;stroke-width:0.5;" x1="1797.5" x2="2002.0303" y1="802.1094" y2="802.1094"/><ellipse cx="1807.5" cy="816.4141" fill="#84BE84" rx="3" ry="3" style="stroke:#038048;stroke-width:1.0;"/><text fill="#000000" font-family="sans-serif" font-size="14" lengthAdjust="spacing" textLength="178.9717" x="1816.5" y="820.6426">AllocateSeat(Course course)</text><ellipse cx="1807.5" cy="834.0234" fill="#84BE84" rx="3" ry="3" style="stroke:#038048;stroke-width:1.0;"/><text fill="#000000" font-family="sans-serif" font-size="14" lengthAdjust="spacing" textLength="180.5303" x="1816.5" y="838.252">ReleaseSeat(Course course)</text></g><!--class StudentService--><g id="elem_StudentService"><rect codeLine="98" fill="#F1F1F1" height="100.8281" id="StudentService" rx="2.5" ry="2.5" style="stroke:#181818;stroke-width:0.5;" width="271.9365" x="1353" y="435.1094"/><ellipse cx="1437.2461" cy="451.1094" fill="#ADD1B2" rx="11" ry="11" style="stroke:#181818;stroke-width:1.0;"/><path d="M1440.0117,446.9844 Q1440.168,446.7656 1440.3555,446.6563 Q1440.543,446.5469 1440.7617,446.5469 Q1441.1367,446.5469 1441.3711,446.8047 Q1441.6055,447.0625 1441.6055,447.6719 L1441.6055,449.125 Q1441.6055,449.7344 1441.3711,450 Q1441.1367,450.2656 1440.7617,450.2656 Q1440.418,450.2656 1440.2148,450.0625 Q1440.0117,449.875 1439.9023,449.3594 Q1439.8555,449 1439.668,448.8125 Q1439.3398,448.4375 1438.7305,448.2188 Q1438.1211,448 1437.4961,448 Q1436.7305,448 1436.0977,448.3281 Q1435.4648,448.6563 1434.9727,449.4063 Q1434.4805,450.1563 1434.4805,451.1875 L1434.4805,452.2813 Q1434.4805,453.5156 1435.3711,454.3359 Q1436.2617,455.1563 1437.8555,455.1563 Q1438.793,455.1563 1439.4492,454.9063 Q1439.8398,454.75 1440.2617,454.3125 Q1440.5273,454.0469 1440.6758,453.9688 Q1440.8242,453.8906 1441.0273,453.8906 Q1441.3555,453.8906 1441.6133,454.1484 Q1441.8711,454.4063 1441.8711,454.75 Q1441.8711,455.0938 1441.5273,455.5 Q1441.0273,456.0781 1440.2305,456.4063 Q1439.1523,456.8594 1437.8555,456.8594 Q1436.3398,456.8594 1435.1367,456.2344 Q1434.1523,455.7344 1433.4648,454.6641 Q1432.7773,453.5938 1432.7773,452.3125 L1432.7773,451.1563 Q1432.7773,449.8281 1433.3945,448.6797 Q1434.0117,447.5313 1435.1055,446.9141 Q1436.1992,446.2969 1437.4336,446.2969 Q1438.168,446.2969 1438.8164,446.4609 Q1439.4648,446.625 1440.0117,446.9844 Z " fill="#000000"/><text fill="#000000" font-family="sans-serif" font-size="14" lengthAdjust="spacing" textLength="94.9443" x="1457.7461" y="456.8379">StudentService</text><line style="stroke:#181818;stroke-width:0.5;" x1="1354" x2="1623.9365" y1="467.1094" y2="467.1094"/><line style="stroke:#181818;stroke-width:0.5;" x1="1354" x2="1623.9365" y1="475.1094" y2="475.1094"/><ellipse cx="1364" cy="489.4141" fill="#84BE84" rx="3" ry="3" style="stroke:#038048;stroke-width:1.0;"/><text fill="#000000" font-family="sans-serif" font-size="14" lengthAdjust="spacing" textLength="225.7021" x="1373" y="493.6426">AddStudentRecord(Student student)</text><ellipse cx="1364" cy="507.0234" fill="#84BE84" rx="3" ry="3" style="stroke:#038048;stroke-width:1.0;"/><text fill="#000000" font-family="sans-serif" font-size="14" lengthAdjust="spacing" textLength="245.9365" x="1373" y="511.252">UpdateStudentRecord(Student student)</text><ellipse cx="1364" cy="524.6328" fill="#84BE84" rx="3" ry="3" style="stroke:#038048;stroke-width:1.0;"/><text fill="#000000" font-family="sans-serif" font-size="14" lengthAdjust="spacing" textLength="238.123" x="1373" y="528.8613">RetrieveStudentRecords(int studentId)</text></g><!--class NotificationDispatcher--><g id="elem_NotificationDispatcher"><rect codeLine="107" fill="#F1F1F1" height="65.6094" id="NotificationDispatcher" rx="2.5" ry="2.5" style="stroke:#181818;stroke-width:0.5;" width="422.8604" x="2850.5" y="770.6094"/><ellipse cx="2989.5942" cy="786.6094" fill="#ADD1B2" rx="11" ry="11" style="stroke:#181818;stroke-width:1.0;"/><path d="M2992.3599,782.4844 Q2992.5161,782.2656 2992.7036,782.1563 Q2992.8911,782.0469 2993.1099,782.0469 Q2993.4849,782.0469 2993.7192,782.3047 Q2993.9536,782.5625 2993.9536,783.1719 L2993.9536,784.625 Q2993.9536,785.2344 2993.7192,785.5 Q2993.4849,785.7656 2993.1099,785.7656 Q2992.7661,785.7656 2992.563,785.5625 Q2992.3599,785.375 2992.2505,784.8594 Q2992.2036,784.5 2992.0161,784.3125 Q2991.688,783.9375 2991.0786,783.7188 Q2990.4692,783.5 2989.8442,783.5 Q2989.0786,783.5 2988.4458,783.8281 Q2987.813,784.1563 2987.3208,784.9063 Q2986.8286,785.6563 2986.8286,786.6875 L2986.8286,787.7813 Q2986.8286,789.0156 2987.7192,789.8359 Q2988.6099,790.6563 2990.2036,790.6563 Q2991.1411,790.6563 2991.7974,790.4063 Q2992.188,790.25 2992.6099,789.8125 Q2992.8755,789.5469 2993.0239,789.4688 Q2993.1724,789.3906 2993.3755,789.3906 Q2993.7036,789.3906 2993.9614,789.6484 Q2994.2192,789.9063 2994.2192,790.25 Q2994.2192,790.5938 2993.8755,791 Q2993.3755,791.5781 2992.5786,791.9063 Q2991.5005,792.3594 2990.2036,792.3594 Q2988.688,792.3594 2987.4849,791.7344 Q2986.5005,791.2344 2985.813,790.1641 Q2985.1255,789.0938 2985.1255,787.8125 L2985.1255,786.6563 Q2985.1255,785.3281 2985.7427,784.1797 Q2986.3599,783.0313 2987.4536,782.4141 Q2988.5474,781.7969 2989.7817,781.7969 Q2990.5161,781.7969 2991.1646,781.9609 Q2991.813,782.125 2992.3599,782.4844 Z " fill="#000000"/><text fill="#000000" font-family="sans-serif" font-size="14" lengthAdjust="spacing" textLength="136.1719" x="3010.0942" y="792.3379">NotificationDispatcher</text><line style="stroke:#181818;stroke-width:0.5;" x1="2851.5" x2="3272.3604" y1="802.6094" y2="802.6094"/><line style="stroke:#181818;stroke-width:0.5;" x1="2851.5" x2="3272.3604" y1="810.6094" y2="810.6094"/><ellipse cx="2861.5" cy="824.9141" fill="#84BE84" rx="3" ry="3" style="stroke:#038048;stroke-width:1.0;"/><text fill="#000000" font-family="sans-serif" font-size="14" lengthAdjust="spacing" textLength="396.8604" x="2870.5" y="829.1426">DispatchEnrollmentNotification(Student student, Course course)</text></g><!--class NotificationQueue--><g id="elem_NotificationQueue"><rect codeLine="111" fill="#F1F1F1" height="83.2188" id="NotificationQueue" rx="2.5" ry="2.5" style="stroke:#181818;stroke-width:0.5;" width="300.709" x="2449.5" y="762.1094"/><ellipse cx="2539.96" cy="778.1094" fill="#ADD1B2" rx="11" ry="11" style="stroke:#181818;stroke-width:1.0;"/><path d="M2542.7256,773.9844 Q2542.8818,773.7656 2543.0693,773.6563 Q2543.2568,773.5469 2543.4756,773.5469 Q2543.8506,773.5469 2544.085,773.8047 Q2544.3193,774.0625 2544.3193,774.6719 L2544.3193,776.125 Q2544.3193,776.7344 2544.085,777 Q2543.8506,777.2656 2543.4756,777.2656 Q2543.1318,777.2656 2542.9287,777.0625 Q2542.7256,776.875 2542.6162,776.3594 Q2542.5693,776 2542.3818,775.8125 Q2542.0537,775.4375 2541.4443,775.2188 Q2540.835,775 2540.21,775 Q2539.4443,775 2538.8115,775.3281 Q2538.1787,775.6563 2537.6865,776.4063 Q2537.1943,777.1563 2537.1943,778.1875 L2537.1943,779.2813 Q2537.1943,780.5156 2538.085,781.3359 Q2538.9756,782.1563 2540.5693,782.1563 Q2541.5068,782.1563 2542.1631,781.9063 Q2542.5537,781.75 2542.9756,781.3125 Q2543.2412,781.0469 2543.3896,780.9688 Q2543.5381,780.8906 2543.7412,780.8906 Q2544.0693,780.8906 2544.3271,781.1484 Q2544.585,781.4063 2544.585,781.75 Q2544.585,782.0938 2544.2412,782.5 Q2543.7412,783.0781 2542.9443,783.4063 Q2541.8662,783.8594 2540.5693,783.8594 Q2539.0537,783.8594 2537.8506,783.2344 Q2536.8662,782.7344 2536.1787,781.6641 Q2535.4912,780.5938 2535.4912,779.3125 L2535.4912,778.1563 Q2535.4912,776.8281 2536.1084,775.6797 Q2536.7256,774.5313 2537.8193,773.9141 Q2538.9131,773.2969 2540.1475,773.2969 Q2540.8818,773.2969 2541.5303,773.4609 Q2542.1787,773.625 2542.7256,773.9844 Z " fill="#000000"/><text fill="#000000" font-family="sans-serif" font-size="14" lengthAdjust="spacing" textLength="111.2891" x="2560.46" y="783.8379">NotificationQueue</text><line style="stroke:#181818;stroke-width:0.5;" x1="2450.5" x2="2749.209" y1="794.1094" y2="794.1094"/><line style="stroke:#181818;stroke-width:0.5;" x1="2450.5" x2="2749.209" y1="802.1094" y2="802.1094"/><ellipse cx="2460.5" cy="816.4141" fill="#84BE84" rx="3" ry="3" style="stroke:#038048;stroke-width:1.0;"/><text fill="#000000" font-family="sans-serif" font-size="14" lengthAdjust="spacing" textLength="274.709" x="2469.5" y="820.6426">EnqueueNotification(Notification notification)</text><ellipse cx="2460.5" cy="834.0234" fill="#84BE84" rx="3" ry="3" style="stroke:#038048;stroke-width:1.0;"/><text fill="#000000" font-family="sans-serif" font-size="14" lengthAdjust="spacing" textLength="136.1514" x="2469.5" y="838.252">ProcessNotifications()</text></g><!--class ReportGenerator--><g id="elem_ReportGenerator"><rect codeLine="119" fill="#F1F1F1" height="83.2188" id="ReportGenerator" rx="2.5" ry="2.5" style="stroke:#181818;stroke-width:0.5;" width="264.123" x="1160" y="134.6094"/><ellipse cx="1235.2842" cy="150.6094" fill="#ADD1B2" rx="11" ry="11" style="stroke:#181818;stroke-width:1.0;"/><path d="M1238.0498,146.4844 Q1238.2061,146.2656 1238.3936,146.1563 Q1238.5811,146.0469 1238.7998,146.0469 Q1239.1748,146.0469 1239.4092,146.3047 Q1239.6436,146.5625 1239.6436,147.1719 L1239.6436,148.625 Q1239.6436,149.2344 1239.4092,149.5 Q1239.1748,149.7656 1238.7998,149.7656 Q1238.4561,149.7656 1238.2529,149.5625 Q1238.0498,149.375 1237.9404,148.8594 Q1237.8936,148.5 1237.7061,148.3125 Q1237.3779,147.9375 1236.7686,147.7188 Q1236.1592,147.5 1235.5342,147.5 Q1234.7686,147.5 1234.1357,147.8281 Q1233.5029,148.1563 1233.0107,148.9063 Q1232.5186,149.6563 1232.5186,150.6875 L1232.5186,151.7813 Q1232.5186,153.0156 1233.4092,153.8359 Q1234.2998,154.6563 1235.8936,154.6563 Q1236.8311,154.6563 1237.4873,154.4063 Q1237.8779,154.25 1238.2998,153.8125 Q1238.5654,153.5469 1238.7139,153.4688 Q1238.8623,153.3906 1239.0654,153.3906 Q1239.3936,153.3906 1239.6514,153.6484 Q1239.9092,153.9063 1239.9092,154.25 Q1239.9092,154.5938 1239.5654,155 Q1239.0654,155.5781 1238.2686,155.9063 Q1237.1904,156.3594 1235.8936,156.3594 Q1234.3779,156.3594 1233.1748,155.7344 Q1232.1904,155.2344 1231.5029,154.1641 Q1230.8154,153.0938 1230.8154,151.8125 L1230.8154,150.6563 Q1230.8154,149.3281 1231.4326,148.1797 Q1232.0498,147.0313 1233.1436,146.4141 Q1234.2373,145.7969 1235.4717,145.7969 Q1236.2061,145.7969 1236.8545,145.9609 Q1237.5029,146.125 1238.0498,146.4844 Z " fill="#000000"/><text fill="#000000" font-family="sans-serif" font-size="14" lengthAdjust="spacing" textLength="105.0547" x="1255.7842" y="156.3379">ReportGenerator</text><line style="stroke:#181818;stroke-width:0.5;" x1="1161" x2="1423.123" y1="166.6094" y2="166.6094"/><line style="stroke:#181818;stroke-width:0.5;" x1="1161" x2="1423.123" y1="174.6094" y2="174.6094"/><ellipse cx="1171" cy="188.9141" fill="#84BE84" rx="3" ry="3" style="stroke:#038048;stroke-width:1.0;"/><text fill="#000000" font-family="sans-serif" font-size="14" lengthAdjust="spacing" textLength="176.6338" x="1180" y="193.1426">GenerateEnrollmentReport()</text><ellipse cx="1171" cy="206.5234" fill="#84BE84" rx="3" ry="3" style="stroke:#038048;stroke-width:1.0;"/><text fill="#000000" font-family="sans-serif" font-size="14" lengthAdjust="spacing" textLength="238.123" x="1180" y="210.752">GenerateStudentPerformanceReport()</text></g><!--class AnalyticsFetcher--><g id="elem_AnalyticsFetcher"><rect codeLine="124" fill="#F1F1F1" height="65.6094" id="AnalyticsFetcher" rx="2.5" ry="2.5" style="stroke:#181818;stroke-width:0.5;" width="176.9307" x="882.5" y="143.1094"/><ellipse cx="916.1517" cy="159.1094" fill="#ADD1B2" rx="11" ry="11" style="stroke:#181818;stroke-width:1.0;"/><path d="M918.9173,154.9844 Q919.0736,154.7656 919.2611,154.6563 Q919.4486,154.5469 919.6673,154.5469 Q920.0423,154.5469 920.2767,154.8047 Q920.5111,155.0625 920.5111,155.6719 L920.5111,157.125 Q920.5111,157.7344 920.2767,158 Q920.0423,158.2656 919.6673,158.2656 Q919.3236,158.2656 919.1205,158.0625 Q918.9173,157.875 918.808,157.3594 Q918.7611,157 918.5736,156.8125 Q918.2455,156.4375 917.6361,156.2188 Q917.0267,156 916.4017,156 Q915.6361,156 915.0033,156.3281 Q914.3705,156.6563 913.8783,157.4063 Q913.3861,158.1563 913.3861,159.1875 L913.3861,160.2813 Q913.3861,161.5156 914.2767,162.3359 Q915.1673,163.1563 916.7611,163.1563 Q917.6986,163.1563 918.3548,162.9063 Q918.7455,162.75 919.1673,162.3125 Q919.433,162.0469 919.5814,161.9688 Q919.7298,161.8906 919.933,161.8906 Q920.2611,161.8906 920.5189,162.1484 Q920.7767,162.4063 920.7767,162.75 Q920.7767,163.0938 920.433,163.5 Q919.933,164.0781 919.1361,164.4063 Q918.058,164.8594 916.7611,164.8594 Q915.2455,164.8594 914.0423,164.2344 Q913.058,163.7344 912.3705,162.6641 Q911.683,161.5938 911.683,160.3125 L911.683,159.1563 Q911.683,157.8281 912.3001,156.6797 Q912.9173,155.5313 914.0111,154.9141 Q915.1048,154.2969 916.3392,154.2969 Q917.0736,154.2969 917.722,154.4609 Q918.3705,154.625 918.9173,154.9844 Z " fill="#000000"/><text fill="#000000" font-family="sans-serif" font-size="14" lengthAdjust="spacing" textLength="103.4824" x="934.2965" y="164.8379">AnalyticsFetcher</text><line style="stroke:#181818;stroke-width:0.5;" x1="883.5" x2="1058.4307" y1="175.1094" y2="175.1094"/><line style="stroke:#181818;stroke-width:0.5;" x1="883.5" x2="1058.4307" y1="183.1094" y2="183.1094"/><ellipse cx="893.5" cy="197.4141" fill="#84BE84" rx="3" ry="3" style="stroke:#038048;stroke-width:1.0;"/><text fill="#000000" font-family="sans-serif" font-size="14" lengthAdjust="spacing" textLength="150.9307" x="902.5" y="201.6426">FetchDataForAnalytics()</text></g><!--class BackupService--><g id="elem_BackupService"><rect codeLine="131" fill="#F1F1F1" height="83.2188" id="BackupService" rx="2.5" ry="2.5" style="stroke:#181818;stroke-width:0.5;" width="175.3857" x="378.5" y="134.6094"/><ellipse cx="416.0031" cy="150.6094" fill="#ADD1B2" rx="11" ry="11" style="stroke:#181818;stroke-width:1.0;"/><path d="M418.7687,146.4844 Q418.925,146.2656 419.1125,146.1563 Q419.3,146.0469 419.5187,146.0469 Q419.8937,146.0469 420.1281,146.3047 Q420.3625,146.5625 420.3625,147.1719 L420.3625,148.625 Q420.3625,149.2344 420.1281,149.5 Q419.8937,149.7656 419.5187,149.7656 Q419.175,149.7656 418.9718,149.5625 Q418.7687,149.375 418.6593,148.8594 Q418.6125,148.5 418.425,148.3125 Q418.0968,147.9375 417.4875,147.7188 Q416.8781,147.5 416.2531,147.5 Q415.4875,147.5 414.8546,147.8281 Q414.2218,148.1563 413.7296,148.9063 Q413.2375,149.6563 413.2375,150.6875 L413.2375,151.7813 Q413.2375,153.0156 414.1281,153.8359 Q415.0187,154.6563 416.6125,154.6563 Q417.55,154.6563 418.2062,154.4063 Q418.5968,154.25 419.0187,153.8125 Q419.2843,153.5469 419.4328,153.4688 Q419.5812,153.3906 419.7843,153.3906 Q420.1125,153.3906 420.3703,153.6484 Q420.6281,153.9063 420.6281,154.25 Q420.6281,154.5938 420.2843,155 Q419.7843,155.5781 418.9875,155.9063 Q417.9093,156.3594 416.6125,156.3594 Q415.0968,156.3594 413.8937,155.7344 Q412.9093,155.2344 412.2218,154.1641 Q411.5343,153.0938 411.5343,151.8125 L411.5343,150.6563 Q411.5343,149.3281 412.1515,148.1797 Q412.7687,147.0313 413.8625,146.4141 Q414.9562,145.7969 416.1906,145.7969 Q416.925,145.7969 417.5734,145.9609 Q418.2218,146.125 418.7687,146.4844 Z " fill="#000000"/><text fill="#000000" font-family="sans-serif" font-size="14" lengthAdjust="spacing" textLength="93.3789" x="435.0038" y="156.3379">BackupService</text><line style="stroke:#181818;stroke-width:0.5;" x1="379.5" x2="552.8857" y1="166.6094" y2="166.6094"/><line style="stroke:#181818;stroke-width:0.5;" x1="379.5" x2="552.8857" y1="174.6094" y2="174.6094"/><ellipse cx="389.5" cy="188.9141" fill="#84BE84" rx="3" ry="3" style="stroke:#038048;stroke-width:1.0;"/><text fill="#000000" font-family="sans-serif" font-size="14" lengthAdjust="spacing" textLength="147.0615" x="398.5" y="193.1426">BackupAcademicData()</text><ellipse cx="389.5" cy="206.5234" fill="#84BE84" rx="3" ry="3" style="stroke:#038048;stroke-width:1.0;"/><text fill="#000000" font-family="sans-serif" font-size="14" lengthAdjust="spacing" textLength="149.3857" x="398.5" y="210.752">RestoreAcademicData()</text></g><!--class ETLPipeline--><g id="elem_ETLPipeline"><rect codeLine="136" fill="#F1F1F1" height="100.8281" id="ETLPipeline" rx="2.5" ry="2.5" style="stroke:#181818;stroke-width:0.5;" width="128.6826" x="653.5" y="125.6094"/><ellipse cx="678.037" cy="141.6094" fill="#ADD1B2" rx="11" ry="11" style="stroke:#181818;stroke-width:1.0;"/><path d="M680.8026,137.4844 Q680.9589,137.2656 681.1464,137.1563 Q681.3339,137.0469 681.5526,137.0469 Q681.9276,137.0469 682.162,137.3047 Q682.3964,137.5625 682.3964,138.1719 L682.3964,139.625 Q682.3964,140.2344 682.162,140.5 Q681.9276,140.7656 681.5526,140.7656 Q681.2089,140.7656 681.0058,140.5625 Q680.8026,140.375 680.6933,139.8594 Q680.6464,139.5 680.4589,139.3125 Q680.1308,138.9375 679.5214,138.7188 Q678.912,138.5 678.287,138.5 Q677.5214,138.5 676.8886,138.8281 Q676.2558,139.1563 675.7636,139.9063 Q675.2714,140.6563 675.2714,141.6875 L675.2714,142.7813 Q675.2714,144.0156 676.162,144.8359 Q677.0526,145.6563 678.6464,145.6563 Q679.5839,145.6563 680.2401,145.4063 Q680.6308,145.25 681.0526,144.8125 Q681.3183,144.5469 681.4667,144.4688 Q681.6151,144.3906 681.8183,144.3906 Q682.1464,144.3906 682.4042,144.6484 Q682.662,144.9063 682.662,145.25 Q682.662,145.5938 682.3183,146 Q681.8183,146.5781 681.0214,146.9063 Q679.9433,147.3594 678.6464,147.3594 Q677.1308,147.3594 675.9276,146.7344 Q674.9433,146.2344 674.2558,145.1641 Q673.5683,144.0938 673.5683,142.8125 L673.5683,141.6563 Q673.5683,140.3281 674.1854,139.1797 Q674.8026,138.0313 675.8964,137.4141 Q676.9901,136.7969 678.2245,136.7969 Q678.9589,136.7969 679.6073,136.9609 Q680.2558,137.125 680.8026,137.4844 Z " fill="#000000"/><text fill="#000000" font-family="sans-serif" font-size="14" lengthAdjust="spacing" textLength="75.4893" x="694.1563" y="147.3379">ETLPipeline</text><line style="stroke:#181818;stroke-width:0.5;" x1="654.5" x2="781.1826" y1="157.6094" y2="157.6094"/><line style="stroke:#181818;stroke-width:0.5;" x1="654.5" x2="781.1826" y1="165.6094" y2="165.6094"/><ellipse cx="664.5" cy="179.9141" fill="#84BE84" rx="3" ry="3" style="stroke:#038048;stroke-width:1.0;"/><text fill="#000000" font-family="sans-serif" font-size="14" lengthAdjust="spacing" textLength="82.4619" x="673.5" y="184.1426">ExtractData()</text><ellipse cx="664.5" cy="197.5234" fill="#84BE84" rx="3" ry="3" style="stroke:#038048;stroke-width:1.0;"/><text fill="#000000" font-family="sans-serif" font-size="14" lengthAdjust="spacing" textLength="102.6826" x="673.5" y="201.752">TransformData()</text><ellipse cx="664.5" cy="215.1328" fill="#84BE84" rx="3" ry="3" style="stroke:#038048;stroke-width:1.0;"/><text fill="#000000" font-family="sans-serif" font-size="14" lengthAdjust="spacing" textLength="70.041" x="673.5" y="219.3613">LoadData()</text></g><!--class AcademicRecordsDatabase--><g id="elem_AcademicRecordsDatabase"><rect codeLine="145" fill="#F1F1F1" height="118.4375" id="AcademicRecordsDatabase" rx="2.5" ry="2.5" style="stroke:#181818;stroke-width:0.5;" width="325.5576" x="655" y="426.6094"/><ellipse cx="726.7637" cy="442.6094" fill="#ADD1B2" rx="11" ry="11" style="stroke:#181818;stroke-width:1.0;"/><path d="M729.5293,438.4844 Q729.6855,438.2656 729.873,438.1563 Q730.0605,438.0469 730.2793,438.0469 Q730.6543,438.0469 730.8887,438.3047 Q731.123,438.5625 731.123,439.1719 L731.123,440.625 Q731.123,441.2344 730.8887,441.5 Q730.6543,441.7656 730.2793,441.7656 Q729.9355,441.7656 729.7324,441.5625 Q729.5293,441.375 729.4199,440.8594 Q729.373,440.5 729.1855,440.3125 Q728.8574,439.9375 728.248,439.7188 Q727.6387,439.5 727.0137,439.5 Q726.248,439.5 725.6152,439.8281 Q724.9824,440.1563 724.4902,440.9063 Q723.998,441.6563 723.998,442.6875 L723.998,443.7813 Q723.998,445.0156 724.8887,445.8359 Q725.7793,446.6563 727.373,446.6563 Q728.3105,446.6563 728.9668,446.4063 Q729.3574,446.25 729.7793,445.8125 Q730.0449,445.5469 730.1934,445.4688 Q730.3418,445.3906 730.5449,445.3906 Q730.873,445.3906 731.1309,445.6484 Q731.3887,445.9063 731.3887,446.25 Q731.3887,446.5938 731.0449,447 Q730.5449,447.5781 729.748,447.9063 Q728.6699,448.3594 727.373,448.3594 Q725.8574,448.3594 724.6543,447.7344 Q723.6699,447.2344 722.9824,446.1641 Q722.2949,445.0938 722.2949,443.8125 L722.2949,442.6563 Q722.2949,441.3281 722.9121,440.1797 Q723.5293,439.0313 724.623,438.4141 Q725.7168,437.7969 726.9512,437.7969 Q727.6855,437.7969 728.334,437.9609 Q728.9824,438.125 729.5293,438.4844 Z " fill="#000000"/><text fill="#000000" font-family="sans-serif" font-size="14" lengthAdjust="spacing" textLength="173.5303" x="747.2637" y="448.3379">AcademicRecordsDatabase</text><line style="stroke:#181818;stroke-width:0.5;" x1="656" x2="979.5576" y1="458.6094" y2="458.6094"/><line style="stroke:#181818;stroke-width:0.5;" x1="656" x2="979.5576" y1="466.6094" y2="466.6094"/><ellipse cx="666" cy="480.9141" fill="#84BE84" rx="3" ry="3" style="stroke:#038048;stroke-width:1.0;"/><text fill="#000000" font-family="sans-serif" font-size="14" lengthAdjust="spacing" textLength="234.2539" x="675" y="485.1426">StoreStudentRecord(Student student)</text><ellipse cx="666" cy="498.5234" fill="#84BE84" rx="3" ry="3" style="stroke:#038048;stroke-width:1.0;"/><text fill="#000000" font-family="sans-serif" font-size="14" lengthAdjust="spacing" textLength="224.0889" x="675" y="502.752">StoreCourseRecord(Course course)</text><ellipse cx="666" cy="516.1328" fill="#84BE84" rx="3" ry="3" style="stroke:#038048;stroke-width:1.0;"/><text fill="#000000" font-family="sans-serif" font-size="14" lengthAdjust="spacing" textLength="291.0059" x="675" y="520.3613">StoreEnrollmentRecord(Enrollment enrollment)</text><ellipse cx="666" cy="533.7422" fill="#84BE84" rx="3" ry="3" style="stroke:#038048;stroke-width:1.0;"/><text fill="#000000" font-family="sans-serif" font-size="14" lengthAdjust="spacing" textLength="299.5576" x="675" y="537.9707">StoreAcademicRecord(AcademicRecord record)</text></g><!--class DataWarehouse--><g id="elem_DataWarehouse"><rect codeLine="152" fill="#F1F1F1" height="83.2188" id="DataWarehouse" rx="2.5" ry="2.5" style="stroke:#181818;stroke-width:0.5;" width="170.751" x="1081.5" y="444.1094"/><ellipse cx="1113.4137" cy="460.1094" fill="#ADD1B2" rx="11" ry="11" style="stroke:#181818;stroke-width:1.0;"/><path d="M1116.1793,455.9844 Q1116.3355,455.7656 1116.523,455.6563 Q1116.7105,455.5469 1116.9293,455.5469 Q1117.3043,455.5469 1117.5387,455.8047 Q1117.773,456.0625 1117.773,456.6719 L1117.773,458.125 Q1117.773,458.7344 1117.5387,459 Q1117.3043,459.2656 1116.9293,459.2656 Q1116.5855,459.2656 1116.3824,459.0625 Q1116.1793,458.875 1116.0699,458.3594 Q1116.023,458 1115.8355,457.8125 Q1115.5074,457.4375 1114.898,457.2188 Q1114.2887,457 1113.6637,457 Q1112.898,457 1112.2652,457.3281 Q1111.6324,457.6563 1111.1402,458.4063 Q1110.648,459.1563 1110.648,460.1875 L1110.648,461.2813 Q1110.648,462.5156 1111.5387,463.3359 Q1112.4293,464.1563 1114.023,464.1563 Q1114.9605,464.1563 1115.6168,463.9063 Q1116.0074,463.75 1116.4293,463.3125 Q1116.6949,463.0469 1116.8434,462.9688 Q1116.9918,462.8906 1117.1949,462.8906 Q1117.523,462.8906 1117.7809,463.1484 Q1118.0387,463.4063 1118.0387,463.75 Q1118.0387,464.0938 1117.6949,464.5 Q1117.1949,465.0781 1116.398,465.4063 Q1115.3199,465.8594 1114.023,465.8594 Q1112.5074,465.8594 1111.3043,465.2344 Q1110.3199,464.7344 1109.6324,463.6641 Q1108.9449,462.5938 1108.9449,461.3125 L1108.9449,460.1563 Q1108.9449,458.8281 1109.5621,457.6797 Q1110.1793,456.5313 1111.273,455.9141 Q1112.3668,455.2969 1113.6012,455.2969 Q1114.3355,455.2969 1114.984,455.4609 Q1115.6324,455.625 1116.1793,455.9844 Z " fill="#000000"/><text fill="#000000" font-family="sans-serif" font-size="14" lengthAdjust="spacing" textLength="101.165" x="1131.1723" y="465.8379">DataWarehouse</text><line style="stroke:#181818;stroke-width:0.5;" x1="1082.5" x2="1251.251" y1="476.1094" y2="476.1094"/><line style="stroke:#181818;stroke-width:0.5;" x1="1082.5" x2="1251.251" y1="484.1094" y2="484.1094"/><ellipse cx="1092.5" cy="498.4141" fill="#84BE84" rx="3" ry="3" style="stroke:#038048;stroke-width:1.0;"/><text fill="#000000" font-family="sans-serif" font-size="14" lengthAdjust="spacing" textLength="144.751" x="1101.5" y="502.6426">StoreAggregatedData()</text><ellipse cx="1092.5" cy="516.0234" fill="#84BE84" rx="3" ry="3" style="stroke:#038048;stroke-width:1.0;"/><text fill="#000000" font-family="sans-serif" font-size="14" lengthAdjust="spacing" textLength="134.5859" x="1101.5" y="520.252">QueryHistoricalData()</text></g><!--class AWS_S3--><g id="elem_AWS_S3"><rect codeLine="157" fill="#F1F1F1" height="83.2188" id="AWS_S3" rx="2.5" ry="2.5" style="stroke:#181818;stroke-width:0.5;" width="176.9512" x="377.5" y="444.1094"/><ellipse cx="433.3257" cy="460.1094" fill="#ADD1B2" rx="11" ry="11" style="stroke:#181818;stroke-width:1.0;"/><path d="M436.0913,455.9844 Q436.2476,455.7656 436.4351,455.6563 Q436.6226,455.5469 436.8413,455.5469 Q437.2163,455.5469 437.4507,455.8047 Q437.6851,456.0625 437.6851,456.6719 L437.6851,458.125 Q437.6851,458.7344 437.4507,459 Q437.2163,459.2656 436.8413,459.2656 Q436.4976,459.2656 436.2944,459.0625 Q436.0913,458.875 435.9819,458.3594 Q435.9351,458 435.7476,457.8125 Q435.4194,457.4375 434.8101,457.2188 Q434.2007,457 433.5757,457 Q432.8101,457 432.1772,457.3281 Q431.5444,457.6563 431.0522,458.4063 Q430.5601,459.1563 430.5601,460.1875 L430.5601,461.2813 Q430.5601,462.5156 431.4507,463.3359 Q432.3413,464.1563 433.9351,464.1563 Q434.8726,464.1563 435.5288,463.9063 Q435.9194,463.75 436.3413,463.3125 Q436.6069,463.0469 436.7554,462.9688 Q436.9038,462.8906 437.1069,462.8906 Q437.4351,462.8906 437.6929,463.1484 Q437.9507,463.4063 437.9507,463.75 Q437.9507,464.0938 437.6069,464.5 Q437.1069,465.0781 436.3101,465.4063 Q435.2319,465.8594 433.9351,465.8594 Q432.4194,465.8594 431.2163,465.2344 Q430.2319,464.7344 429.5444,463.6641 Q428.8569,462.5938 428.8569,461.3125 L428.8569,460.1563 Q428.8569,458.8281 429.4741,457.6797 Q430.0913,456.5313 431.1851,455.9141 Q432.2788,455.2969 433.5132,455.2969 Q434.2476,455.2969 434.896,455.4609 Q435.5444,455.625 436.0913,455.9844 Z " fill="#000000"/><text fill="#000000" font-family="sans-serif" font-size="14" lengthAdjust="spacing" textLength="56.7998" x="453.8257" y="465.8379">AWS_S3</text><line style="stroke:#181818;stroke-width:0.5;" x1="378.5" x2="553.4512" y1="476.1094" y2="476.1094"/><line style="stroke:#181818;stroke-width:0.5;" x1="378.5" x2="553.4512" y1="484.1094" y2="484.1094"/><ellipse cx="388.5" cy="498.4141" fill="#84BE84" rx="3" ry="3" style="stroke:#038048;stroke-width:1.0;"/><text fill="#000000" font-family="sans-serif" font-size="14" lengthAdjust="spacing" textLength="150.9512" x="397.5" y="502.6426">StoreAcademicBackup()</text><ellipse cx="388.5" cy="516.0234" fill="#84BE84" rx="3" ry="3" style="stroke:#038048;stroke-width:1.0;"/><text fill="#000000" font-family="sans-serif" font-size="14" lengthAdjust="spacing" textLength="105.041" x="397.5" y="520.252">RestoreBackup()</text></g><!--class AWS_ElasticBeanstalk--><g id="elem_AWS_ElasticBeanstalk"><rect codeLine="162" fill="#F1F1F1" height="83.2188" id="AWS_ElasticBeanstalk" rx="2.5" ry="2.5" style="stroke:#181818;stroke-width:0.5;" width="174.3926" x="103" y="444.1094"/><ellipse cx="118" cy="460.1094" fill="#ADD1B2" rx="11" ry="11" style="stroke:#181818;stroke-width:1.0;"/><path d="M120.7656,455.9844 Q120.9219,455.7656 121.1094,455.6563 Q121.2969,455.5469 121.5156,455.5469 Q121.8906,455.5469 122.125,455.8047 Q122.3594,456.0625 122.3594,456.6719 L122.3594,458.125 Q122.3594,458.7344 122.125,459 Q121.8906,459.2656 121.5156,459.2656 Q121.1719,459.2656 120.9688,459.0625 Q120.7656,458.875 120.6563,458.3594 Q120.6094,458 120.4219,457.8125 Q120.0938,457.4375 119.4844,457.2188 Q118.875,457 118.25,457 Q117.4844,457 116.8516,457.3281 Q116.2188,457.6563 115.7266,458.4063 Q115.2344,459.1563 115.2344,460.1875 L115.2344,461.2813 Q115.2344,462.5156 116.125,463.3359 Q117.0156,464.1563 118.6094,464.1563 Q119.5469,464.1563 120.2031,463.9063 Q120.5938,463.75 121.0156,463.3125 Q121.2813,463.0469 121.4297,462.9688 Q121.5781,462.8906 121.7813,462.8906 Q122.1094,462.8906 122.3672,463.1484 Q122.625,463.4063 122.625,463.75 Q122.625,464.0938 122.2813,464.5 Q121.7813,465.0781 120.9844,465.4063 Q119.9063,465.8594 118.6094,465.8594 Q117.0938,465.8594 115.8906,465.2344 Q114.9063,464.7344 114.2188,463.6641 Q113.5313,462.5938 113.5313,461.3125 L113.5313,460.1563 Q113.5313,458.8281 114.1484,457.6797 Q114.7656,456.5313 115.8594,455.9141 Q116.9531,455.2969 118.1875,455.2969 Q118.9219,455.2969 119.5703,455.4609 Q120.2188,455.625 120.7656,455.9844 Z " fill="#000000"/><text fill="#000000" font-family="sans-serif" font-size="14" lengthAdjust="spacing" textLength="142.3926" x="132" y="465.8379">AWS_ElasticBeanstalk</text><line style="stroke:#181818;stroke-width:0.5;" x1="104" x2="276.3926" y1="476.1094" y2="476.1094"/><line style="stroke:#181818;stroke-width:0.5;" x1="104" x2="276.3926" y1="484.1094" y2="484.1094"/><ellipse cx="114" cy="498.4141" fill="#84BE84" rx="3" ry="3" style="stroke:#038048;stroke-width:1.0;"/><text fill="#000000" font-family="sans-serif" font-size="14" lengthAdjust="spacing" textLength="73.1445" x="123" y="502.6426">AutoScale()</text><ellipse cx="114" cy="516.0234" fill="#84BE84" rx="3" ry="3" style="stroke:#038048;stroke-width:1.0;"/><text fill="#000000" font-family="sans-serif" font-size="14" lengthAdjust="spacing" textLength="121.3926" x="123" y="520.252">DeployApplication()</text></g><!--link Student to Enrollment--><g id="link_Student_Enrollment"><path codeLine="170" d="M1680.33,1130.6094 C1616.3,1130.6094 1548,1130.6094 1548,1130.6094 C1548,1130.6094 1548,1298.1594 1548,1392.3894 " fill="none" id="Student-to-Enrollment" style="stroke:#181818;stroke-width:1.0;"/><polygon fill="#181818" points="1548,1398.3894,1552,1389.3894,1548,1393.3894,1544,1389.3894,1548,1398.3894" style="stroke:#181818;stroke-width:1.0;"/><text fill="#000000" font-family="sans-serif" font-size="13" lengthAdjust="spacing" textLength="53.4663" x="1494" y="1212.8345">Enrolls in</text><text fill="#000000" font-family="sans-serif" font-size="13" lengthAdjust="spacing" textLength="7.23" x="1665.3821" y="1127.539">1</text><text fill="#000000" font-family="sans-serif" font-size="13" lengthAdjust="spacing" textLength="5.0591" x="1562.1814" y="1387.6868">*</text></g><!--link Course to Enrollment--><g id="link_Course_Enrollment"><path codeLine="171" d="M1388,1198.7594 C1388,1257.8194 1388,1336.3794 1388,1392.5894 " fill="none" id="Course-to-Enrollment" style="stroke:#181818;stroke-width:1.0;"/><polygon fill="#181818" points="1388,1398.5894,1392,1389.5894,1388,1393.5894,1384,1389.5894,1388,1398.5894" style="stroke:#181818;stroke-width:1.0;"/><text fill="#000000" font-family="sans-serif" font-size="13" lengthAdjust="spacing" textLength="73.709" x="1314" y="1295.1745">Is enrolled in</text><text fill="#000000" font-family="sans-serif" font-size="13" lengthAdjust="spacing" textLength="7.23" x="1380.6506" y="1220.1232">1</text><text fill="#000000" font-family="sans-serif" font-size="13" lengthAdjust="spacing" textLength="5.0591" x="1382.6814" y="1387.9112">*</text></g><!--link Student to AcademicRecord--><g id="link_Student_AcademicRecord"><path codeLine="172" d="M1790,1189.8294 C1790,1248.9994 1790,1333.4394 1790,1392.5594 " fill="none" id="Student-to-AcademicRecord" style="stroke:#181818;stroke-width:1.0;"/><polygon fill="#181818" points="1790,1398.5594,1794,1389.5594,1790,1393.5594,1786,1389.5594,1790,1398.5594" style="stroke:#181818;stroke-width:1.0;"/><text fill="#000000" font-family="sans-serif" font-size="13" lengthAdjust="spacing" textLength="23.1182" x="1766" y="1290.6845">Has</text><text fill="#000000" font-family="sans-serif" font-size="13" lengthAdjust="spacing" textLength="7.23" x="1782.5896" y="1211.5117">1</text><text fill="#000000" font-family="sans-serif" font-size="13" lengthAdjust="spacing" textLength="5.0591" x="1778.7095" y="1387.8775">*</text></g><!--link Course to AcademicRecord--><g id="link_Course_AcademicRecord"><path codeLine="173" d="M1532.91,1194.6094 C1602.93,1194.6094 1672,1194.6094 1672,1194.6094 C1672,1194.6094 1672,1315.0494 1672,1392.5894 " fill="none" id="Course-to-AcademicRecord" style="stroke:#181818;stroke-width:1.0;"/><polygon fill="#181818" points="1672,1398.5894,1676,1389.5894,1672,1393.5894,1668,1389.5894,1672,1398.5894" style="stroke:#181818;stroke-width:1.0;"/><text fill="#000000" font-family="sans-serif" font-size="13" lengthAdjust="spacing" textLength="78.7617" x="1593" y="1223.5445">Is recorded in</text><text fill="#000000" font-family="sans-serif" font-size="13" lengthAdjust="spacing" textLength="7.23" x="1540.5682" y="1194.9998">1</text><text fill="#000000" font-family="sans-serif" font-size="13" lengthAdjust="spacing" textLength="5.0591" x="1650.3036" y="1389.483">*</text></g><!--link CourseRepository to Course--><g id="link_CourseRepository_Course"><path codeLine="176" d="M536,862.8294 C536,957.0594 536,1130.6094 536,1130.6094 C536,1130.6094 994.39,1130.6094 1237.47,1130.6094 " fill="none" id="CourseRepository-to-Course" style="stroke:#181818;stroke-width:1.0;"/><polygon fill="#181818" points="1243.47,1130.6094,1234.47,1126.6094,1238.47,1130.6094,1234.47,1134.6094,1243.47,1130.6094" style="stroke:#181818;stroke-width:1.0;"/><text fill="#000000" font-family="sans-serif" font-size="13" lengthAdjust="spacing" textLength="125.0234" x="629.84" y="1127.1045">Manages course data</text><text fill="#000000" font-family="sans-serif" font-size="13" lengthAdjust="spacing" textLength="7.23" x="528.6094" y="884.5117">1</text><text fill="#000000" font-family="sans-serif" font-size="13" lengthAdjust="spacing" textLength="5.0591" x="1230.4308" y="1127.6753">*</text></g><!--link StudentRepository to Student--><g id="link_StudentRepository_Student"><path codeLine="177" d="M971.93,854.6094 C1202.51,854.6094 1702.75,854.6094 1702.75,854.6094 C1702.75,854.6094 1702.75,984.2994 1702.75,1065.3994 " fill="none" id="StudentRepository-to-Student" style="stroke:#181818;stroke-width:1.0;"/><polygon fill="#181818" points="1702.75,1071.3994,1706.75,1062.3994,1702.75,1066.3994,1698.75,1062.3994,1702.75,1071.3994" style="stroke:#181818;stroke-width:1.0;"/><text fill="#000000" font-family="sans-serif" font-size="13" lengthAdjust="spacing" textLength="128.6479" x="1316.73" y="851.1045">Manages student data</text><text fill="#000000" font-family="sans-serif" font-size="13" lengthAdjust="spacing" textLength="7.23" x="979.4665" y="854.8564">1</text><text fill="#000000" font-family="sans-serif" font-size="13" lengthAdjust="spacing" textLength="5.0591" x="1686.8175" y="1060.698">*</text></g><!--link AuthController to SSOHandler--><g id="link_AuthController_SSOHandler"><path codeLine="180" d="M3656.25,217.8494 C3656.25,280.0594 3656.25,389.8294 3656.25,446.5494 " fill="none" id="AuthController-to-SSOHandler" style="stroke:#181818;stroke-width:1.0;"/><polygon fill="#181818" points="3656.25,452.5494,3660.25,443.5494,3656.25,447.5494,3652.25,443.5494,3656.25,452.5494" style="stroke:#181818;stroke-width:1.0;"/><text fill="#000000" font-family="sans-serif" font-size="13" lengthAdjust="spacing" textLength="112.0171" x="3543.25" y="331.6945">SSO authentication</text></g><!--link AuthController to TokenManager--><g id="link_AuthController_TokenManager"><path codeLine="181" d="M3485.25,217.8494 C3485.25,277.0894 3485.25,378.8894 3485.25,438.0394 " fill="none" id="AuthController-to-TokenManager" style="stroke:#181818;stroke-width:1.0;"/><polygon fill="#181818" points="3485.25,444.0394,3489.25,435.0394,3485.25,439.0394,3481.25,435.0394,3485.25,444.0394" style="stroke:#181818;stroke-width:1.0;"/><text fill="#000000" font-family="sans-serif" font-size="13" lengthAdjust="spacing" textLength="115.6226" x="3369.25" y="327.4345">Token management</text></g><!--link TokenManager to RBACManager--><g id="link_TokenManager_RBACManager"><path codeLine="182" d="M3450.75,527.1794 C3450.75,590.9894 3450.75,705.7994 3450.75,764.2594 " fill="none" id="TokenManager-to-RBACManager" style="stroke:#181818;stroke-width:1.0;"/><polygon fill="#181818" points="3450.75,770.2594,3454.75,761.2594,3450.75,765.2594,3446.75,761.2594,3450.75,770.2594" style="stroke:#181818;stroke-width:1.0;"/><text fill="#000000" font-family="sans-serif" font-size="13" lengthAdjust="spacing" textLength="84.5317" x="3365.75" y="645.2145">Access control</text></g><!--link EnrollmentProcessor to SeatAllocator--><g id="link_EnrollmentProcessor_SeatAllocator"><path codeLine="183" d="M1900,527.1794 C1900,588.1294 1900,695.0794 1900,756.0294 " fill="none" id="EnrollmentProcessor-to-SeatAllocator" style="stroke:#181818;stroke-width:1.0;"/><polygon fill="#181818" points="1900,762.0294,1904,753.0294,1900,757.0294,1896,753.0294,1900,762.0294" style="stroke:#181818;stroke-width:1.0;"/><text fill="#000000" font-family="sans-serif" font-size="13" lengthAdjust="spacing" textLength="106.2344" x="1793" y="641.0945">Seat management</text></g><!--link EnrollmentProcessor to NotificationDispatcher--><g id="link_EnrollmentProcessor_NotificationDispatcher"><path codeLine="184" d="M2044.75,527.2994 C2044.75,534.9694 2044.75,540.6094 2044.75,540.6094 C2044.75,540.6094 3062,540.6094 3062,540.6094 C3062,540.6094 3062,693.9294 3062,764.5694 " fill="none" id="EnrollmentProcessor-to-NotificationDispatcher" style="stroke:#181818;stroke-width:1.0;"/><polygon fill="#181818" points="3062,770.5694,3066,761.5694,3062,765.5694,3058,761.5694,3062,770.5694" style="stroke:#181818;stroke-width:1.0;"/><text fill="#000000" font-family="sans-serif" font-size="13" lengthAdjust="spacing" textLength="134.3989" x="2526.7" y="537.1045">Enrollment notifications</text></g><!--link ReportGenerator to AcademicRecordsDatabase--><g id="link_ReportGenerator_AcademicRecordsDatabase"><path codeLine="185" d="M1190.83,217.7294 C1190.83,290.1294 1190.83,431.6094 1190.83,431.6094 C1190.83,431.6094 1087.51,431.6094 987.26,431.6094 " fill="none" id="ReportGenerator-to-AcademicRecordsDatabase" style="stroke:#181818;stroke-width:1.0;"/><polygon fill="#181818" points="981.26,431.6094,990.26,435.6094,986.26,431.6094,990.26,427.6094,981.26,431.6094" style="stroke:#181818;stroke-width:1.0;"/><text fill="#000000" font-family="sans-serif" font-size="13" lengthAdjust="spacing" textLength="102.5908" x="1087.83" y="425.9545">Accesses records</text></g><!--link ReportGenerator to DataWarehouse--><g id="link_ReportGenerator_DataWarehouse"><path codeLine="186" d="M1221.67,217.8494 C1221.67,277.0894 1221.67,378.8894 1221.67,438.0394 " fill="none" id="ReportGenerator-to-DataWarehouse" style="stroke:#181818;stroke-width:1.0;"/><polygon fill="#181818" points="1221.67,444.0394,1225.67,435.0394,1221.67,439.0394,1217.67,435.0394,1221.67,444.0394" style="stroke:#181818;stroke-width:1.0;"/><text fill="#000000" font-family="sans-serif" font-size="13" lengthAdjust="spacing" textLength="82.3672" x="1138.67" y="327.4345">Historical data</text></g><!--link BackupService to AWS_S3--><g id="link_BackupService_AWS_S3"><path codeLine="187" d="M422.25,217.8494 C422.25,277.0894 422.25,378.8894 422.25,438.0394 " fill="none" id="BackupService-to-AWS_S3" style="stroke:#181818;stroke-width:1.0;"/><polygon fill="#181818" points="422.25,444.0394,426.25,435.0394,422.25,439.0394,418.25,435.0394,422.25,444.0394" style="stroke:#181818;stroke-width:1.0;"/><text fill="#000000" font-family="sans-serif" font-size="13" lengthAdjust="spacing" textLength="82.3862" x="339.25" y="327.4345">Backs up data</text></g><!--link AcademicRecordsDatabase to BackupService--><g id="link_AcademicRecordsDatabase_BackupService"><path codeLine="188" d="M654.88,435.6094 C562.8,435.6094 466,435.6094 466,435.6094 C466,435.6094 466,297.1594 466,223.7994 " fill="none" id="AcademicRecordsDatabase-to-BackupService" style="stroke:#181818;stroke-width:1.0;"/><polygon fill="#181818" points="466,217.7994,462,226.7994,466,222.7994,470,226.7994,466,217.7994" style="stroke:#181818;stroke-width:1.0;"/><text fill="#000000" font-family="sans-serif" font-size="13" lengthAdjust="spacing" textLength="85.9917" x="380" y="417.6445">Backup source</text></g><!--link ETLPipeline to AWS_S3--><g id="link_ETLPipeline_AWS_S3"><path codeLine="190" d="M653.25,222.6094 C592.12,222.6094 509.75,222.6094 509.75,222.6094 C509.75,222.6094 509.75,363.7794 509.75,437.9394 " fill="none" id="ETLPipeline-to-AWS_S3" style="stroke:#181818;stroke-width:1.0;"/><polygon fill="#181818" points="509.75,443.9394,513.75,434.9394,509.75,438.9394,505.75,434.9394,509.75,443.9394" style="stroke:#181818;stroke-width:1.0;"/><text fill="#000000" font-family="sans-serif" font-size="13" lengthAdjust="spacing" textLength="214.6143" x="294.75" y="258.0145">Loads transformed data into AWS S3</text></g><!--link ETLPipeline to DataWarehouse--><g id="link_ETLPipeline_DataWarehouse"><path codeLine="191" d="M782.71,222.6094 C896.56,222.6094 1120.75,222.6094 1120.75,222.6094 C1120.75,222.6094 1120.75,363.7794 1120.75,437.9394 " fill="none" id="ETLPipeline-to-DataWarehouse" style="stroke:#181818;stroke-width:1.0;"/><polygon fill="#181818" points="1120.75,443.9394,1124.75,434.9394,1120.75,438.9394,1116.75,434.9394,1120.75,443.9394" style="stroke:#181818;stroke-width:1.0;"/><text fill="#000000" font-family="sans-serif" font-size="13" lengthAdjust="spacing" textLength="157.5171" x="904.39" y="237.1045">Transfers data for reporting</text></g><!--link ETLPipeline to AcademicRecordsDatabase--><g id="link_ETLPipeline_AcademicRecordsDatabase"><path codeLine="192" d="M718.75,226.8694 C718.75,281.5794 718.75,362.5494 718.75,420.3494 " fill="none" id="ETLPipeline-to-AcademicRecordsDatabase" style="stroke:#181818;stroke-width:1.0;"/><polygon fill="#181818" points="718.75,426.3494,722.75,417.3494,718.75,421.3494,714.75,417.3494,718.75,426.3494" style="stroke:#181818;stroke-width:1.0;"/><text fill="#000000" font-family="sans-serif" font-size="13" lengthAdjust="spacing" textLength="148.8398" x="569.75" y="323.1045">Extracts data for analytics</text></g><!--link AWS_ElasticBeanstalk to CourseRepository--><g id="link_AWS_ElasticBeanstalk_CourseRepository"><path codeLine="195" d="M161,527.1794 C161,613.3794 161,803.6094 161,803.6094 C161,803.6094 310.55,803.6094 421.28,803.6094 " fill="none" id="AWS_ElasticBeanstalk-to-CourseRepository" style="stroke:#181818;stroke-width:1.0;"/><polygon fill="#181818" points="427.28,803.6094,418.28,799.6094,422.28,803.6094,418.28,807.6094,427.28,803.6094" style="stroke:#181818;stroke-width:1.0;"/><text fill="#000000" font-family="sans-serif" font-size="13" lengthAdjust="spacing" textLength="153.2134" x="7" y="795.0345">Auto-scales based on load</text></g><!--link AWS_ElasticBeanstalk to StudentRepository--><g id="link_AWS_ElasticBeanstalk_StudentRepository"><path codeLine="196" d="M219,527.3894 C219,574.4894 219,644.6094 219,644.6094 C219,644.6094 858,644.6094 858,644.6094 C858,644.6094 858,693.1994 858,738.3994 " fill="none" id="AWS_ElasticBeanstalk-to-StudentRepository" style="stroke:#181818;stroke-width:1.0;"/><polygon fill="#181818" points="858,744.3994,862,735.3994,858,739.3994,854,735.3994,858,744.3994" style="stroke:#181818;stroke-width:1.0;"/><text fill="#000000" font-family="sans-serif" font-size="13" lengthAdjust="spacing" textLength="153.2134" x="375.78" y="641.1045">Auto-scales based on load</text></g><!--link NotificationDispatcher to Student--><g id="link_NotificationDispatcher_Student"><path codeLine="199" d="M2991.5,836.7594 C2991.5,919.8994 2991.5,1130.6094 2991.5,1130.6094 C2991.5,1130.6094 2201.94,1130.6094 1905.54,1130.6094 " fill="none" id="NotificationDispatcher-to-Student" style="stroke:#181818;stroke-width:1.0;"/><polygon fill="#181818" points="1899.54,1130.6094,1908.54,1134.6094,1904.54,1130.6094,1908.54,1126.6094,1899.54,1130.6094" style="stroke:#181818;stroke-width:1.0;"/><text fill="#000000" font-family="sans-serif" font-size="13" lengthAdjust="spacing" textLength="158.228" x="2433.44" y="1127.1045">Notifies enrollment success</text></g><!--link NotificationDispatcher to AcademicRecord--><g id="link_NotificationDispatcher_AcademicRecord"><path codeLine="200" d="M3132.5,836.9394 C3132.5,970.2094 3132.5,1457.6094 3132.5,1457.6094 C3132.5,1457.6094 2374.46,1457.6094 2020.79,1457.6094 " fill="none" id="NotificationDispatcher-to-AcademicRecord" style="stroke:#181818;stroke-width:1.0;"/><polygon fill="#181818" points="2014.79,1457.6094,2023.79,1461.6094,2019.79,1457.6094,2023.79,1453.6094,2014.79,1457.6094" style="stroke:#181818;stroke-width:1.0;"/><text fill="#000000" font-family="sans-serif" font-size="13" lengthAdjust="spacing" textLength="130.0825" x="2752.98" y="1454.1045">Notifies grade updates</text></g><!--SRC=[pLXRRzis57xNho3qKcThYdPzAue0ZfCqmT8kYvFrOHW6LZgrYSYaHjBfZA7_VOSNoPH8ojxR_69BFD-vdu-aDTCDa4VEda4gfdTa8RPI0Vb8ELt11hWcovtIi26pnyN7vGav9RzVizMQtC8pD7-GHKEL8XUChYJTa48zCTvIyxDX7FIk1IAaNejmHLB-fA0bFxr-7RpbeWRpzWs-rQ8bMf0lGckn8JMJK6acU56qj7f2jqXvlCCbUV_-7l6KhneuEoF_50N1pml4II0NOaCP9vTSCyr0aNEnvJMLEolJMqk9ndg9_rGs9KkzhOqp-_VcyoDXna6tTdE1Ekv-FZiRYIWj6L-HAoQL_aGta5w-fSdLIov5qznmbvQPpqvblqvwsU_5o5qlb_BMBHrmrWdblNNh2onooeA4ccarMd4LTV6OkixsFmdqFoTY2kHJSUsNSx6DQtM58kJqbDp3Lv30A-ZB_AeNcqvWGeDRVTK9fTEtztMfgTwgVD3pYjQmOHNsff1rCd2tzFyF-eEaGRjyBu9uNw2oLk3y2vaVsr3aqBWwJth4BahSlAwdHyg9VG3jnKmIAX_VMEgnhQc6O_JTmqOymwJAg0LyMQQ3yKApZgUK-qx4qqcolLGkeYELkg0Ew1tLUxxLQvHW5JLR0Lc2V6OLP2gV5ZxK0mQr45oRKGCP9UrMh1YVFIgGXg-CUjeeKkr_dyG0iNNnRH5rKq_LRFdBDULrocuG37ncUesYimbD3-89kEFEMDS7u21HZnLAUkRaVgCDgtivFu_QF4nOlZ-VBtA65skedkv0RfXIM18Ls7xPpJkrktos0_oSO9P2PW_s_ONOj8BZBpNUlYqm01tP40wO2-b8HZX-rcsEvi-KDVGBQ_1iS-p0xoExamBfLOdOMxyIRAUZ8Nr9ffsZIDnD06U3RNYQa83gUTC8xE24Ptu5ZDGXCco0gad171bsV95dGhSh7gAk0SyT1xa7R6zu7eBKWFRgRDD_4ffzFOxqKgA7EZp4N33LKbsj4wtUBUtB7mAFxgIeEA6MNxUmZUjpoVyoxmVc1e7ouE4atVEXl9gTJ9qefBP4X1HpGJKbSqwR7JAlodBB4BINFpB_3kvPMUJvUfzuXvYTP0HzAP1flmgvCJCR0U8ZO-Vr5QJBRz-RX5m9sGld4sbJTuuPshOsAxuCxXgGJkCOSlbmUoXrJZetrswrEmmRzRDuBXMc738oCSa-tDwn5iozDkxIlxN4tIjfvW7lkyeK8xbwAsWTMHvkUutOrdrBVa7-wvehUrtD8muUWGQt1zNZnm4lJUR-4mjQH7VAje19ghVYOTTRo84RO00T1Z8RtOga_PeejWdyCvMm5jjSzFFLIi8AHwvE5XRfJEwkcManf9xcK7VDFo__NBxDMFBEkvxEzN6qchHnYRzmUiy1crBJvYbrsXHBT1WYEnVGDc8tRzkc8-AuPz6c8TB6SUsQjOhGZR23Bw7_xwJeUgLyK-B5y8oKFvJXyUmTATsJmgjaMVX6oGlVADyEK5j0Ilse0n1rJLLIToo9-bt7UFt5wFfP2Svng71L2tp0IA6BDBfNXfQySRJWpfZA3mF1CmRjmyY0ko03j1yz3o_yVrnoK8vlU8CWzf-igkTY8dYpAqRN7sCdk9MW6NmYT72pAbEWmGK4OVOPJNRdzB8OI1X8U7D0nBmo-uL9gz5R5gdphNLlSAuq7kABWQKSCdFkwHlFTbPujC1M6U_LHa-EB_iWe6kTZ88XqPYkx2d3bt6uprcZZYjGsAmfWdkc4yrvOq13DHwBI8KTX-UKeWZtjw4LiqSfehjz3DlSc3F_yWWZHPPlomWTnUMsGP3AWL4H9iQVdMBuH5xzNXleeTsHnFQyySYp7DdJt608YYGJ6hlHkBwpVoQ8KsKeKH7ZH8tZGXhCIPdN4u_kjA9YTDB7t89qzs5LP9erD6JKEp5GmTP8rDPsOJcf8oQyNjNA_0M73MOkFQZbNm00]--></g></svg>